SplineFontDB: 3.0
FontName: Percolator
FullName: Percolator
FamilyName: Percolator
Weight: Medium
Copyright: PercolatorCopr. 1995, Lunchbox Design, Designed By Adam Roe, All Rights Reserved.
Version: 001.000
ItalicAngle: 0
UnderlinePosition: -119
UnderlineWidth: 56
Ascent: 800
Descent: 200
InvalidEm: 0
sfntRevision: 0x00010000
LayerCount: 2
Layer: 0 0 "Arri+AOgA-re" 1
Layer: 1 0 "Avant" 0
XUID: [1021 582 -265405030 4355161]
UniqueID: 480000
StyleMap: 0x0000
FSType: 0
OS2Version: 2
OS2_WeightWidthSlopeOnly: 0
OS2_UseTypoMetrics: 0
CreationTime: 1177888715
ModificationTime: 1495025547
PfmFamily: 81
TTFWeight: 500
TTFWidth: 5
LineGap: 0
VLineGap: 0
Panose: 0 0 0 0 0 0 0 0 0 0
OS2TypoAscent: 744
OS2TypoAOffset: 0
OS2TypoDescent: -234
OS2TypoDOffset: 0
OS2TypoLinegap: 97
OS2WinAscent: 764
OS2WinAOffset: 0
OS2WinDescent: 262
OS2WinDOffset: 0
HheadAscent: 764
HheadAOffset: 0
HheadDescent: -262
HheadDOffset: 0
OS2SubXSize: 650
OS2SubYSize: 650
OS2SubXOff: 0
OS2SubYOff: 150
OS2SupXSize: 650
OS2SupYSize: 650
OS2SupXOff: 0
OS2SupYOff: 500
OS2StrikeYSize: 50
OS2StrikeYPos: 225
OS2CapHeight: 523
OS2XHeight: 512
OS2Vendor: 'PfEd'
OS2CodePages: 00000001.00000000
OS2UnicodeRanges: 00000003.10000008.00000000.00000000
DEI: 91125
LangName: 1033 "" "" "Regular" "Percolator:1177906715" "" "001.000"
Encoding: UnicodeBmp
UnicodeInterp: none
NameList: AGL For New Fonts
DisplaySize: -48
AntiAlias: 1
FitToEm: 0
WinInfo: 64 32 14
BeginPrivate: 6
BlueValues 31 [-16 0 470 486 692 707 713 722]
BlueScale 8 0.045455
StdHW 4 [27]
StdVW 4 [87]
StemSnapH 4 [27]
StemSnapV 4 [87]
EndPrivate
BeginChars: 65537 126

StartChar: exclam
Encoding: 33 33 2
Width: 211
Flags: MW
HStem: -9 89
VStem: 71 79
LayerCount: 2
Fore
SplineSet
59 35 m 0
 59 59 83 79 112 79 c 0
 142 79 165 60 165 35 c 0
 165 10 142 -9 112 -9 c 0
 83 -9 59 10 59 35 c 0
153 125 m 1
 71 125 l 1
 71 599 l 2
 71 643 136 682 190 629 c 1
 192 627 189 632 190 629 c 1
 190 622 192 606 192 606 c 1
 145 634 153 570 153 539 c 2
 153 125 l 1
EndSplineSet
Validated: 33
EndChar

StartChar: quotedbl
Encoding: 34 34 3
Width: 293
Flags: MW
VStem: 67 79 185 79
LayerCount: 2
Fore
SplineSet
107 298 m 1
 107 286 l 1
 69 489 l 2
 68 494 67 499 67 503 c 0
 67 527 83 540 106 540 c 0
 131 540 145 527 145 502 c 0
 145 497 146 493 145 489 c 2
 107 298 l 1
226 299 m 1
 226 287 l 1
 188 490 l 2
 187 495 186 500 186 504 c 0
 186 528 202 541 225 541 c 0
 250 541 264 528 264 503 c 0
 264 498 265 494 264 490 c 2
 226 299 l 1
EndSplineSet
Validated: 1
EndChar

StartChar: numbersign
Encoding: 35 35 4
Width: 1008
Flags: MW
HStem: 34 33 78 20 419 20<261.5 272>
VStem: 155 257 509 72 842 72
LayerCount: 2
Fore
SplineSet
444 68 m 1
 894 68 l 1
 891 34 l 1
 444 34 l 1
 444 68 l 1
83 105 m 1
 54 105 l 1
 54 81 l 1
 155 81 l 1
 155 81 154 190 155 261 c 0
 155 339 190 420 279 419 c 0
 369 418 415 344 412 256 c 0
 410 188 420 68 274 10 c 1
 407 29 486 122 484 264 c 0
 480 364 384 444 272 439 c 0
 251 439 204 431 162 404 c 0
 160 402 157 401 155 399 c 1
 143 430 94 453 52 416 c 1
 51 416 52 418 52 416 c 1
 51 411 51 400 51 400 c 1
 88 420 83 378 83 356 c 0
 84 287 83 105 83 105 c 1
843 257 m 0
 841 357 800 418 710 419 c 0
 621 420 582 339 581 261 c 0
 580 190 619 100 707 99 c 1
 794 94 845 166 843 257 c 0
914 266 m 0
 919 166 831 82 719 78 c 0
 607 74 513 152 509 253 c 0
 504 351 591 435 703 439 c 0
 815 444 910 365 914 266 c 0
EndSplineSet
Validated: 37
EndChar

StartChar: dollar
Encoding: 36 36 5
Width: 606
Flags: MW
HStem: -112 33 478 33
VStem: 60 112<390.5 414.5> 287 47<-236 -112 -112 -112 -77 178 306 479 510 644> 451 79
LayerCount: 2
Fore
SplineSet
287 -112 m 1
 243 -112 229 -107 214 -105 c 0
 193 -102 154 -90 130 -72 c 1
 177 -86 204 -88 287 -84 c 1
 287 -85 287 195 287 195 c 1
 193 229 l 2
 100 265 60 318 60 376 c 0
 60 453 153 511 282 511 c 0
 284 511 285 511 287 510 c 2
 287 644 l 1
 334 644 l 1
 334 509 l 1
 403 503 471 487 496 463 c 1
 496 495 l 1
 530 495 l 1
 530 360 l 1
 456 360 l 1
 452 452 404 474 334 479 c 1
 334 291 l 1
 419 262 l 2
 519 228 562 166 561 107 c 0
 559 -2 472 -101 334 -111 c 1
 334 -236 l 1
 287 -236 l 1
 287 -112 l 1
287 479 m 1
 217 477 172 445 172 409 c 0
 172 372 205 334 277 310 c 1
 277 310 287 307 287 306 c 2
 287 479 l 1
334 -77 m 1
 400 -56 451 10 449 69 c 0
 448 111 408 150 338 177 c 1
 334 178 l 2
 334 179 334 -77 334 -77 c 1
EndSplineSet
Validated: 37
EndChar

StartChar: percent
Encoding: 37 37 6
Width: 800
Flags: MW
HStem: -4 12 242 12 253 12 498 12
VStem: 82 41 325 41 436 41 679 41
LayerCount: 2
Fore
SplineSet
567 571 m 1xff
 609 571 l 1
 208 -56 l 1
 165 -56 l 1
 567 571 l 1xff
82 376 m 0
 82 458 140 510 225 510 c 0
 310 510 367 458 367 376 c 0
 367 295 310 242 225 242 c 0
 140 242 82 295 82 376 c 0
124 376 m 0
 124 302 164 253 225 253 c 0
 286 253 325 302 325 376 c 0
 325 450 286 500 225 500 c 0
 164 500 124 450 124 376 c 0
435 130 m 0
 435 212 493 264 578 264 c 0
 663 264 720 212 720 130 c 0
 720 49 663 -4 578 -4 c 0
 493 -4 435 49 435 130 c 0
477 130 m 0
 477 56 517 7 578 7 c 0
 639 7 678 56 678 130 c 0
 678 204 639 254 578 254 c 0
 517 254 477 204 477 130 c 0
EndSplineSet
Validated: 8388609
EndChar

StartChar: ampersand
Encoding: 38 38 7
Width: 802
Flags: MW
HStem: -10 42 291 33 501 20<327.5 405.5>
VStem: 73 87 211 72 441 41 506 177
LayerCount: 2
Fore
SplineSet
336 320 m 1
 407 350 438 394 438 436 c 0
 438 477 413 499 370 499 c 0
 325 499 286 476 286 431 c 0
 286 401 316 363 336 320 c 1
271 268 m 1
 198 238 162 198 162 150 c 0
 162 82 221 31 293 31 c 0
 330 31 365 41 401 77 c 1
 382 99 289 239 271 268 c 1
461 133 m 1
 519 195 555 231 555 264 c 0
 555 285 540 294 504 296 c 1
 504 324 l 1
 683 324 l 1
 683 296 l 1
 638 295 627 295 604 261 c 0
 582 231 542 170 483 111 c 1
 542 41 630 -18 802 101 c 1
 788 91 748 41 683 16 c 0
 584 -21 490 -28 420 55 c 1
 362 7 305 -10 235 -10 c 0
 137 -10 73 39 73 112 c 0
 73 184 135 239 261 289 c 1
 243 328 211 365 211 399 c 0
 211 470 285 521 370 521 c 0
 441 521 482 491 482 438 c 0
 482 380 444 341 347 300 c 1
 359 284 447 153 461 133 c 1
EndSplineSet
Validated: 33
EndChar

StartChar: parenleft
Encoding: 40 40 8
Width: 374
Flags: MW
VStem: 87 87
LayerCount: 2
Fore
SplineSet
341 -197 m 1
 327 -212 l 1
 162 -94 87 41 87 230 c 0
 87 413 163 551 326 671 c 1
 339 656 l 1
 213 544 175 413 175 223 c 0
 175 34 215 -95 341 -197 c 1
EndSplineSet
Validated: 1
EndChar

StartChar: parenright
Encoding: 41 41 9
Width: 374
Flags: MW
VStem: 228 87
LayerCount: 2
Fore
SplineSet
76 671 m 1
 239 551 315 413 315 230 c 0
 315 41 240 -94 75 -212 c 1
 61 -197 l 1
 187 -95 227 34 227 223 c 0
 227 413 189 544 63 656 c 1
 76 671 l 1
EndSplineSet
Validated: 1
EndChar

StartChar: asterisk
Encoding: 42 42 10
Width: 490
Flags: MW
HStem: 266 265<243 260.5>
VStem: 243 41
LayerCount: 2
Fore
SplineSet
243 389 m 1
 182 362 173 320 140 320 c 0
 123 320 110 331 110 345 c 0
 110 357 122 370 141 373 c 0
 156 375 188 374 239 399 c 1
 199 421 166 423 142 426 c 0
 123 429 110 441 110 455 c 0
 110 469 123 480 138 480 c 0
 162 480 171 467 186 451 c 0
 208 427 228 417 244 408 c 1
 244 411 244 415 244 418 c 0
 244 464 221 488 221 505 c 0
 221 522 233 531 253 531 c 0
 271 531 282 521 282 505 c 0
 282 485 258 462 258 420 c 0
 258 417 258 413 259 408 c 1
 322 436 331 479 364 479 c 0
 380 479 393 466 393 452 c 0
 393 434 375 427 339 422 c 0
 326 420 302 417 266 399 c 1
 292 385 315 377 344 374 c 0
 378 371 393 361 393 345 c 0
 393 331 381 319 364 319 c 0
 329 319 317 366 259 389 c 1
 259 386 259 383 259 380 c 0
 259 331 282 306 282 292 c 0
 282 276 270 266 251 266 c 0
 231 266 221 275 221 294 c 0
 221 309 244 334 244 378 c 0
 244 382 243 386 243 389 c 1
EndSplineSet
Validated: 1
EndChar

StartChar: plus
Encoding: 43 43 11
Width: 815
Flags: MW
HStem: 0 20 195 51<140 369 140 369 430 660>
VStem: 369 64
LayerCount: 2
Fore
SplineSet
369 441 m 1
 430 441 l 1
 430 246 l 1
 660 246 l 1
 660 195 l 1
 430 195 l 1
 430 0 l 1
 369 0 l 1
 369 195 l 1
 140 195 l 1
 140 246 l 1
 369 246 l 1
 369 441 l 1
EndSplineSet
Validated: 1
EndChar

StartChar: comma
Encoding: 44 44 12
Width: 245
Flags: MW
HStem: 0 81<113 127.5>
VStem: 73 131
LayerCount: 2
Fore
SplineSet
80 -127 m 1
 68 -115 l 1
 134 -78 166 -42 166 -13 c 0
 166 -1 164 2 150 2 c 0
 142 2 133 0 122 0 c 0
 92 0 74 16 74 39 c 0
 74 64 95 81 131 81 c 0
 177 81 204 55 204 11 c 0
 204 -45 162 -92 80 -127 c 1
EndSplineSet
Validated: 1
EndChar

StartChar: hyphen
Encoding: 45 45 13
Width: 322
Flags: MW
HStem: 149 58
VStem: 68 216<149 205 149 205>
LayerCount: 2
Fore
SplineSet
68 149 m 1
 68 205 l 1
 284 205 l 1
 284 149 l 1
 68 149 l 1
EndSplineSet
Validated: 1
EndChar

StartChar: period
Encoding: 46 46 14
Width: 245
Flags: MW
HStem: -9 89
VStem: 87 103
LayerCount: 2
Fore
SplineSet
87 36 m 0
 87 61 111 81 141 81 c 0
 171 81 195 61 195 36 c 0
 195 11 171 -9 141 -9 c 0
 111 -9 87 11 87 36 c 0
EndSplineSet
Validated: 1
EndChar

StartChar: slash
Encoding: 47 47 15
Width: 265
Flags: W
LayerCount: 2
Fore
SplineSet
242 523 m 1
 280 523 l 1
 60 -69 l 1
 21 -69 l 1
 242 523 l 1
EndSplineSet
Validated: 1
EndChar

StartChar: zero
Encoding: 48 48 16
Width: 630
Flags: MW
HStem: -12 20 503 20<260 371.5>
VStem: 56 72 503 72
LayerCount: 2
Fore
SplineSet
56 256 m 0
 56 419 160 523 316 523 c 0
 471 523 575 419 575 256 c 0
 575 93 471 -12 316 -12 c 0
 160 -12 56 93 56 256 c 0
132 256 m 0
 132 107 204 10 316 10 c 0
 427 10 499 107 499 256 c 0
 499 404 427 503 316 503 c 0
 204 503 132 404 132 256 c 0
EndSplineSet
Validated: 1
EndChar

StartChar: one
Encoding: 49 49 17
Width: 300
Flags: MW
HStem: 0 33
VStem: 132 72
LayerCount: 2
Fore
SplineSet
204 460 m 1
 204 111 l 2
 204 43 217 32 262 32 c 0
 267 32 273 32 279 32 c 1
 279 0 l 1
 56 0 l 1
 56 32 l 1
 60 32 63 32 66 32 c 0
 107 32 136 42 136 111 c 2
 136 111 136 384 136 391 c 0
 135 422 145 492 92 464 c 1
 92 464 91 480 92 487 c 1
 92 490 91 486 92 487 c 1
 139 528 192 517 204 460 c 1
EndSplineSet
Validated: 37
EndChar

StartChar: two
Encoding: 50 50 18
Width: 490
Flags: MW
HStem: 0 58<140 313 313 347 140 410> 464 58
VStem: 344 72
LayerCount: 2
Fore
SplineSet
57 0 m 1
 57 14 l 1
 151 101 l 2
 265 206 340 271 340 353 c 0
 340 424 291 466 216 466 c 0
 151 466 100 447 58 373 c 1
 57 373 l 1
 83 470 151 522 256 522 c 0
 353 522 416 471 416 390 c 0
 416 317 362 257 273 178 c 2
 140 58 l 1
 313 58 l 2
 381 58 416 61 444 115 c 1
 461 110 l 1
 461 110 458 62 444 38 c 0
 434 21 410 0 410 0 c 1
 57 0 l 1
EndSplineSet
Validated: 1
EndChar

StartChar: three
Encoding: 51 51 19
Width: 490
Flags: MW
HStem: -9 20 464 58
VStem: 318 72
LayerCount: 2
Fore
SplineSet
218 13 m 0
 280 13 355 70 355 135 c 0
 355 213 293 255 175 255 c 0
 172 255 168 255 166 255 c 2
 166 271 l 1
 259 279 317 330 317 391 c 0
 317 437 276 468 217 468 c 0
 162 468 115 443 80 392 c 1
 66 401 l 1
 105 481 171 522 255 522 c 0
 333 522 390 477 390 425 c 0
 390 383 362 349 305 308 c 1
 384 287 424 242 424 175 c 0
 424 72 319 -19 171 -9 c 0
 128 -6 84 16 56 41 c 1
 162 5 193 13 218 13 c 0
EndSplineSet
Validated: 33
EndChar

StartChar: four
Encoding: 52 52 20
Width: 490
Flags: MW
HStem: -1 20 130 51<85 293 85 293 52 293 362 447>
VStem: 290 72
LayerCount: 2
Fore
SplineSet
447 130 m 1
 362 130 l 1
 362 80 l 2
 363 58 356 13 393 33 c 1
 393 33 391 22 391 17 c 1
 390 15 393 18 391 17 c 1
 349 -20 293 6 293 37 c 0
 293 75 293 130 293 130 c 1
 52 130 l 1
 52 187 l 1
 322 522 l 1
 362 522 l 1
 362 181 l 1
 447 181 l 1
 447 130 l 1
293 181 m 1
 293 440 l 1
 85 181 l 1
 293 181 l 1
EndSplineSet
Validated: 33
EndChar

StartChar: five
Encoding: 53 53 21
Width: 490
Flags: MW
HStem: -3 20 338 20 454 58<185 356 356 364 364 375 182 386 185 185>
VStem: 337 72
LayerCount: 2
Fore
SplineSet
214 358 m 0
 326 354 414 270 409 172 c 0
 405 72 316 -4 199 -3 c 0
 147 -2 107 23 95 26 c 1
 304 -27 337 109 337 180 c 0
 336 258 296 339 208 338 c 0
 132 337 92 294 79 222 c 1
 47 222 l 1
 182 512 l 1
 356 512 l 2
 359 512 362 512 364 512 c 0
 386 512 399 514 413 532 c 1
 424 526 l 1
 386 454 l 1
 185 454 l 1
 135 348 l 1
 154 346 150 361 214 358 c 0
EndSplineSet
Validated: 33
EndChar

StartChar: six
Encoding: 54 54 22
Width: 509
Flags: MW
HStem: -11 20
VStem: 63 72 398 72
LayerCount: 2
Fore
SplineSet
424 522 m 1
 280 505 172 412 148 287 c 0
 132 204 136 178 136 171 c 0
 138 72 178 10 269 10 c 0
 357 9 397 89 397 168 c 0
 398 238 377 371 189 322 c 0
 176 319 242 350 294 350 c 0
 379 350 465 276 470 176 c 0
 474 77 387 -7 275 -11 c 0
 224 -13 175 3 138 29 c 1
 138 29 67 79 64 163 c 0
 64 169 63 177 63 183 c 0
 63 375 196 505 424 522 c 1
EndSplineSet
Validated: 33
EndChar

StartChar: seven
Encoding: 55 55 23
Width: 490
Flags: MW
HStem: -10 20 454 58
LayerCount: 2
Fore
SplineSet
279 450 m 0
 147 450 112 448 44 380 c 1
 44 383 l 1
 101 465 141 512 261 512 c 0
 455 512 463 512 463 512 c 1
 252 -10 l 1
 196 -10 l 1
 385 449 l 1
 385 449 291 450 279 450 c 0
EndSplineSet
Validated: 1
EndChar

StartChar: eight
Encoding: 56 56 24
Width: 507
Flags: MW
HStem: 1 12 255 20 512 12
VStem: 56 72 390 72
LayerCount: 2
Fore
SplineSet
276 255 m 0
 272 255 267 255 262 255 c 0
 257 255 251 255 245 255 c 0
 176 250 131 204 131 135 c 0
 131 62 181 15 260 15 c 0
 338 15 388 62 388 135 c 0
 388 204 344 249 276 255 c 0
276 270 m 0
 339 276 379 321 379 389 c 0
 379 463 332 510 262 510 c 0
 191 510 145 463 145 389 c 0
 145 321 183 276 246 270 c 0
 251 270 256 270 260 270 c 0
 265 270 272 270 276 270 c 0
331 263 m 1
 412 246 462 200 462 135 c 0
 462 55 381 1 260 1 c 0
 139 1 56 55 56 135 c 0
 56 201 109 247 190 264 c 1
 120 282 77 328 77 389 c 0
 77 472 152 524 262 524 c 0
 372 524 446 472 446 389 c 0
 446 327 402 281 331 263 c 1
EndSplineSet
Validated: 1
EndChar

StartChar: nine
Encoding: 57 57 25
Width: 507
Flags: MW
HStem: -8 20 505 20
VStem: 58 72 392 72<339.5 351>
LayerCount: 2
Fore
SplineSet
465 331 m 0
 465 139 332 9 104 -8 c 1
 104 -8 l 1
 248 9 356 102 380 227 c 0
 396 310 392 336 392 343 c 0
 390 442 350 504 259 504 c 0
 171 505 131 425 131 346 c 0
 130 276 151 143 339 192 c 0
 352 195 286 164 234 164 c 0
 149 164 63 238 58 338 c 0
 54 437 141 521 253 525 c 0
 304 527 353 511 390 485 c 1
 390 485 461 435 464 351 c 0
 464 345 465 337 465 331 c 0
EndSplineSet
Validated: 37
EndChar

StartChar: colon
Encoding: 58 58 26
Width: 267
Flags: MW
HStem: -9 89 266 89
VStem: 97 103
LayerCount: 2
Fore
SplineSet
97 36 m 0
 97 61 120 81 151 81 c 0
 181 81 205 61 205 36 c 0
 205 11 181 -9 151 -9 c 0
 120 -9 97 11 97 36 c 0
97 310 m 0
 97 335 120 355 151 355 c 0
 181 355 205 335 205 310 c 0
 205 285 181 265 151 265 c 0
 120 265 97 285 97 310 c 0
EndSplineSet
Validated: 1
EndChar

StartChar: semicolon
Encoding: 59 59 27
Width: 267
Flags: MW
HStem: 0 81<124 139.5> 266 89<131 161.5>
VStem: 92 103
LayerCount: 2
Fore
SplineSet
92 -127 m 1
 80 -115 l 1
 145 -78 178 -42 178 -13 c 0
 178 -1 176 2 162 2 c 0
 154 2 145 0 134 0 c 0
 104 0 85 16 85 39 c 0
 85 64 106 81 142 81 c 0
 188 81 216 55 216 11 c 0
 216 -45 174 -93 92 -127 c 1
92 310 m 0
 92 335 116 355 146 355 c 0
 177 355 199 335 199 310 c 0
 199 285 177 266 146 266 c 0
 116 266 92 285 92 310 c 0
EndSplineSet
Validated: 1
EndChar

StartChar: less
Encoding: 60 60 28
Width: 815
Flags: W
LayerCount: 2
Fore
SplineSet
655 419 m 1
 655 363 l 1
 235 221 l 1
 655 78 l 1
 655 23 l 1
 145 198 l 1
 145 244 l 1
 655 419 l 1
EndSplineSet
Validated: 1
EndChar

StartChar: equal
Encoding: 61 61 29
Width: 815
Flags: MW
HStem: 124 51 266 51
LayerCount: 2
Fore
SplineSet
140 317 m 1
 660 317 l 1
 660 267 l 1
 140 267 l 1
 140 317 l 1
140 174 m 1
 660 174 l 1
 660 124 l 1
 140 124 l 1
 140 174 l 1
EndSplineSet
Validated: 1
EndChar

StartChar: greater
Encoding: 62 62 30
Width: 815
Flags: W
LayerCount: 2
Fore
SplineSet
145 419 m 1
 655 244 l 1
 655 198 l 1
 145 23 l 1
 145 78 l 1
 566 221 l 1
 145 363 l 1
 145 419 l 1
EndSplineSet
Validated: 1
EndChar

StartChar: question
Encoding: 63 63 31
Width: 481
Flags: MW
HStem: -9 89
VStem: 169 103
LayerCount: 2
Fore
SplineSet
169 35 m 0
 169 59 193 79 222 79 c 0
 252 79 275 60 275 35 c 0
 275 10 252 -9 222 -9 c 0
 193 -9 169 10 169 35 c 0
263 351 m 1
 425 351 l 1
 436 537 324 649 190 647 c 0
 131 646 56 602 71 606 c 0
 356 694 347 387 343 387 c 2
 181 387 l 1
 181 125 l 1
 263 125 l 1
 263 351 l 1
EndSplineSet
Validated: 41
EndChar

StartChar: at
Encoding: 64 64 32
Width: 737
Flags: MW
HStem: 34 33 95 20 434 20<465 507 465 465 579 579 579 665>
VStem: 61 72 394 72
LayerCount: 2
Fore
SplineSet
375 121 m 1
 362 119 322 93 271 93 c 0
 153 91 65 167 61 267 c 0
 56 366 143 450 255 454 c 0
 367 459 462 380 466 280 c 0
 466 274 467 267 467 261 c 2
 467 119 l 1
 489 119 l 1
 489 95 l 1
 395 95 l 1
 395 253 l 2
 395 259 395 266 395 272 c 0
 392 371 352 433 262 433 c 0
 173 434 133 354 133 275 c 0
 132 205 166 68 375 121 c 1
579 491 m 1
 570 529 520 554 478 517 c 1
 477 515 479 519 478 517 c 1
 478 512 477 501 477 501 c 1
 514 520 506 475 507 454 c 1
 465 454 l 1
 465 430 l 1
 507 430 l 1
 508 423 507 417 507 410 c 0
 507 404 507 398 507 391 c 2
 507 207 l 2
 506 197 508 190 508 184 c 0
 512 84 564 20 676 25 c 1
 579 43 579 128 579 192 c 0
 579 198 578 205 579 207 c 2
 579 399 l 2
 579 405 579 412 579 419 c 0
 579 422 579 426 579 430 c 1
 665 430 l 1
 665 454 l 1
 579 454 l 1
 579 491 l 1
60 68 m 1
 510 68 l 1
 510 34 l 1
 60 34 l 1
 60 68 l 1
EndSplineSet
Validated: 37
EndChar

StartChar: A
Encoding: 65 65 33
Width: 753
Flags: MW
HStem: 0 33 169 33
LayerCount: 2
Fore
SplineSet
227 198 m 1
 461 198 l 1
 349 413 l 1
 227 198 l 1
608 113 m 2
 626 82 648 18 686 46 c 1
 686 46 693 30 697 23 c 1
 697 20 697 25 697 23 c 1
 665 -30 554 -2 533 52 c 1
 475 169 l 1
 213 169 l 1
 169 89 l 2
 159 71 155 73 155 65 c 0
 155 43 177 34 222 34 c 0
 224 34 225 34 227 34 c 2
 227 0 l 1
 26 0 l 1
 26 34 l 1
 70 34 91 38 116 83 c 2
 368 521 l 1
 390 521 l 1
 608 113 l 2
EndSplineSet
Validated: 37
EndChar

StartChar: B
Encoding: 66 66 34
Width: 669
Flags: MW
HStem: 260 20<273 287 284.5 351.5> 479 33
VStem: 142 96 472 103
LayerCount: 2
Fore
SplineSet
239 311 m 2
 239 281 242 280 273 280 c 0
 277 280 282 280 287 280 c 0
 416 280 475 308 475 384 c 0
 475 457 424 480 310 480 c 0
 249 480 239 469 239 430 c 2
 239 311 l 2
239 54 m 1
 222 9 161 -28 101 25 c 1
 100 26 101 22 101 25 c 1
 100 32 100 48 100 48 c 1
 153 20 141 83 142 114 c 2
 142 412 l 2
 142 464 125 478 51 481 c 1
 51 512 l 1
 346 512 l 2
 496 512 575 463 575 388 c 0
 575 334 532 292 452 272 c 1
 551 256 602 213 602 147 c 0
 602 46 510 -21 375 -20 c 0
 316 -19 271 10 256 13 c 1
 460 -39 496 70 496 143 c 0
 496 218 435 255 313 255 c 0
 298 255 287 255 278 255 c 0
 245 255 239 252 239 228 c 2
 239 228 240 92 239 54 c 1
EndSplineSet
Validated: 37
EndChar

StartChar: C
Encoding: 67 67 35
Width: 693
Flags: MW
HStem: -12 33 497 26
VStem: 71 103
LayerCount: 2
Fore
SplineSet
638 118 m 1
 638 115 l 1
 581 33 501 -12 391 -12 c 0
 197 -12 71 94 71 252 c 0
 71 411 206 523 397 523 c 0
 490 523 545 494 575 494 c 0
 592 494 604 504 604 519 c 1
 621 519 l 1
 639 354 l 1
 621 354 l 1
 586 447 514 496 413 496 c 0
 273 496 177 403 177 256 c 0
 177 115 275 20 407 20 c 0
 501 20 570 50 638 118 c 1
EndSplineSet
Validated: 1
EndChar

StartChar: D
Encoding: 68 68 36
Width: 788
Flags: MW
HStem: -6 20 479 33<276.5 342 342 400>
VStem: 142 96 602 103
LayerCount: 2
Fore
SplineSet
402 -6 m 0
 328 -5 271 31 253 35 c 1
 552 -41 599 152 599 253 c 0
 599 401 495 479 305 479 c 0
 248 479 239 469 239 417 c 2
 239 54 l 1
 222 9 161 -28 101 25 c 1
 100 26 101 22 101 25 c 1
 100 32 100 48 100 48 c 1
 149 21 142 83 142 114 c 2
 142 412 l 2
 142 464 122 479 51 481 c 1
 51 512 l 1
 342 512 l 2
 576 512 705 416 705 261 c 0
 705 114 570 -8 402 -6 c 0
EndSplineSet
Validated: 37
EndChar

StartChar: E
Encoding: 69 69 37
Width: 605
Flags: MW
HStem: 255 33 479 33
VStem: 101 103 469 19<180 356 180 356>
LayerCount: 2
Fore
SplineSet
101 202 m 2
 101 410 l 2
 101 463 95 482 59 465 c 1
 57 480 l 1
 57 480 64 491 70 496 c 0
 82 507 93 511 109 512 c 2
 536 512 l 1
 545 399 l 1
 525 399 l 1
 512 467 482 478 399 478 c 2
 243 478 l 2
 203 478 199 472 199 442 c 2
 199 309 l 2
 199 286 203 284 228 284 c 2
 351 284 l 2
 434 284 465 292 469 356 c 1
 488 356 l 1
 488 180 l 1
 469 180 l 1
 463 246 435 255 351 255 c 2
 227 255 l 2
 201 255 199 250 199 230 c 2
 199 230 198 225 198 197 c 0
 198 96 245 -53 544 23 c 1
 526 19 469 -17 395 -18 c 0
 227 -20 101 42 101 202 c 2
EndSplineSet
Validated: 37
EndChar

StartChar: F
Encoding: 70 70 38
Width: 607
Flags: MW
HStem: 0 33 250 33 479 33
VStem: 142 96 465 19<172 353 322.5 353>
LayerCount: 2
Fore
SplineSet
561 512 m 1
 571 391 l 1
 552 391 l 1
 538 462 505 478 418 478 c 2
 288 478 l 2
 253 478 239 470 239 441 c 2
 239 306 l 2
 239 285 242 280 268 280 c 2
 350 280 l 2
 435 280 465 292 465 353 c 1
 484 353 l 1
 484 172 l 1
 465 172 l 1
 460 243 436 250 350 250 c 2
 267 250 l 2
 247 250 239 246 239 228 c 2
 239 103 l 2
 239 47 262 34 337 34 c 1
 337 0 l 1
 51 0 l 1
 51 34 l 1
 128 36 142 47 142 101 c 2
 142 410 l 2
 142 463 136 482 100 465 c 1
 98 480 l 1
 98 480 105 491 111 496 c 0
 123 507 134 512 150 512 c 2
 561 512 l 1
EndSplineSet
Validated: 33
EndChar

StartChar: G
Encoding: 71 71 39
Width: 793
Flags: MW
HStem: -12 33 251 26 490 33
VStem: 73 103 565 96
LayerCount: 2
Fore
SplineSet
564 277 m 1
 735 277 l 1
 735 250 l 1
 669 249 661 235 661 189 c 2
 661 107 l 1
 686 124 l 1
 662 91 l 1
 575 -7 500 -12 409 -12 c 0
 206 -12 73 95 73 249 c 0
 73 411 211 523 411 523 c 0
 510 523 563 491 591 491 c 0
 606 491 616 501 621 519 c 1
 637 519 l 1
 646 362 l 1
 628 362 l 1
 584 455 526 494 420 494 c 0
 275 494 178 400 178 255 c 0
 178 108 278 16 424 16 c 0
 480 16 528 26 564 44 c 1
 564 164 l 2
 564 185 568 237 546 237 c 0
 536 237 529 236 521 231 c 1
 522 253 l 1
 527 259 531 263 538 267 c 0
 547 273 564 277 564 277 c 1
EndSplineSet
Validated: 33
EndChar

StartChar: H
Encoding: 72 72 40
Width: 801
Flags: MW
HStem: 0 33<56 244 56 56> 235 33 479 33
VStem: 146 103 558 96
LayerCount: 2
Fore
SplineSet
745 0 m 1
 467 0 l 1
 467 33 l 1
 538 36 557 48 557 102 c 2
 557 212 l 2
 557 230 551 235 529 235 c 2
 268 235 l 2
 248 235 244 230 244 210 c 2
 244 0 l 1
 56 0 l 1
 56 33 l 1
 130 35 146 50 146 102 c 2
 146 428 l 2
 146 481 127 479 56 480 c 1
 56 512 l 1
 335 512 l 1
 335 480 l 1
 264 479 244 482 244 428 c 2
 244 288 l 2
 244 269 247 264 268 264 c 2
 530 264 l 2
 550 264 557 271 557 288 c 2
 557 288 557 414 557 468 c 1
 574 513 636 550 696 497 c 1
 698 495 695 500 696 497 c 1
 696 490 698 474 698 474 c 1
 645 502 655 438 654 407 c 2
 654 102 l 2
 654 50 674 35 745 33 c 1
 745 0 l 1
EndSplineSet
Validated: 33
EndChar

StartChar: I
Encoding: 73 73 41
Width: 372
Flags: MW
HStem: 0 33 479 33
VStem: 150 103
LayerCount: 2
Fore
SplineSet
60 0 m 1
 60 34 l 1
 133 35 150 49 150 102 c 2
 150 409 l 2
 150 461 131 476 60 478 c 1
 60 512 l 1
 339 512 l 1
 339 478 l 1
 268 475 248 463 248 409 c 2
 248 102 l 2
 248 49 267 35 339 34 c 1
 339 0 l 1
 60 0 l 1
EndSplineSet
Validated: 1
EndChar

StartChar: J
Encoding: 74 74 42
Width: 361
Flags: MW
HStem: 479 33
VStem: 147 103
LayerCount: 2
Fore
SplineSet
250 96 m 0
 250 65 239 1 292 29 c 1
 292 29 288 13 288 6 c 1
 287 3 290 8 288 6 c 1
 263 -16 237 -22 213 -19 c 1
 162 -95 64 -145 -50 -144 c 0
 -124 -143 -181 -107 -199 -103 c 1
 100 -179 148 16 147 117 c 0
 146 229 143 403 143 403 c 2
 142 461 132 478 55 478 c 1
 55 512 l 1
 339 512 l 1
 339 478 l 1
 267 477 250 460 250 403 c 2
 250 403 250 237 250 96 c 0
EndSplineSet
Validated: 37
EndChar

StartChar: K
Encoding: 75 75 43
Width: 822
Flags: MW
HStem: 0 20 34 205 275 205
VStem: 337 192
LayerCount: 2
Fore
SplineSet
714 476 m 1
 714 476 712 492 712 499 c 1
 711 502 714 497 712 499 c 1
 652 552 574 515 574 469 c 1
 564 361 538 281 434 274 c 1
 251 274 l 1
 251 415 l 2
 251 465 267 479 337 480 c 1
 337 512 l 1
 58 512 l 1
 58 480 l 2
 61 480 63 480 66 480 c 0
 126 480 148 463 148 413 c 2
 148 99 l 2
 148 49 126 32 66 32 c 0
 63 32 61 32 58 32 c 2
 56 0 l 1
 337 0 l 1
 337 32 l 1
 267 33 251 47 251 97 c 2
 251 240 l 1
 312 240 262 240 388 240 c 0
 510 240 577 162 586 34 c 1
 534 34 l 1
 534 0 l 1
 745 0 l 1
 745 34 l 1
 688 34 l 1
 677 135 600 213 507 250 c 1
 610 279 660 370 674 467 c 0
 679 483 689 489 714 476 c 1
EndSplineSet
Validated: 41
EndChar

StartChar: L
Encoding: 76 76 44
Width: 665
Flags: MW
HStem: 0 33 479 33<52 332 294.5 328 327 332>
VStem: 141 103
LayerCount: 2
Fore
SplineSet
389 34 m 0
 483 34 552 64 620 132 c 1
 620 129 l 1
 563 47 483 0 373 0 c 0
 179 0 52 0 52 0 c 1
 52 34 l 2
 54 34 55 34 57 34 c 0
 125 34 141 35 141 93 c 2
 141 408 l 2
 141 462 132 478 52 479 c 1
 52 512 l 1
 332 512 l 1
 332 479 l 2
 330 479 329 479 327 479 c 0
 262 479 240 461 240 408 c 2
 240 86 l 2
 240 45 246 34 302 34 c 2
 302 34 257 34 389 34 c 0
EndSplineSet
Validated: 37
EndChar

StartChar: M
Encoding: 77 77 45
Width: 922
Flags: MW
HStem: 0 33 479 33
VStem: 68 112 658 103
LayerCount: 2
Fore
SplineSet
137 478 m 1
 68 478 l 1
 68 512 l 1
 297 512 l 1
 297 478 l 1
 249 478 l 1
 450 121 l 1
 636 466 l 1
 653 513 740 542 800 489 c 1
 802 487 799 492 800 489 c 1
 800 482 805 466 805 466 c 1
 752 494 762 426 762 395 c 2
 761 91 l 2
 761 35 766 36 842 32 c 1
 842 0 l 1
 579 0 l 1
 579 32 l 1
 653 34 663 34 663 91 c 2
 663 425 l 1
 431 0 l 1
 413 0 l 1
 180 425 l 1
 180 100 l 2
 180 35 193 32 266 32 c 1
 266 0 l 1
 55 0 l 1
 55 32 l 1
 122 32 137 38 137 104 c 2
 137 478 l 1
EndSplineSet
Validated: 33
EndChar

StartChar: N
Encoding: 78 78 46
Width: 753
Flags: MW
HStem: 0 20
LayerCount: 2
Fore
SplineSet
255 464 m 1
 217 511 156 542 96 489 c 1
 94 487 97 492 96 489 c 1
 96 482 91 466 91 466 c 1
 144 494 137 426 137 395 c 2
 137 102 l 2
 137 49 127 36 48 32 c 1
 48 0 l 1
 269 0 l 1
 269 32 l 1
 190 36 180 49 180 102 c 2
 180 413 l 1
 595 0 l 1
 613 0 l 1
 613 408 l 2
 613 461 623 474 702 479 c 1
 702 512 l 1
 482 512 l 1
 482 479 l 1
 561 474 570 461 570 408 c 2
 570 148 l 1
 255 464 l 1
EndSplineSet
Validated: 41
EndChar

StartChar: O
Encoding: 79 79 47
Width: 793
Flags: MW
HStem: -12 33 490 33
VStem: 71 103 605 103
LayerCount: 2
Fore
SplineSet
71 256 m 0
 71 419 199 523 390 523 c 0
 580 523 708 419 708 256 c 0
 708 93 580 -12 390 -12 c 0
 199 -12 71 93 71 256 c 0
177 256 m 0
 177 107 261 16 390 16 c 0
 518 16 602 107 602 256 c 0
 602 404 518 495 390 495 c 0
 261 495 177 404 177 256 c 0
EndSplineSet
Validated: 1
EndChar

StartChar: P
Encoding: 80 80 48
Width: 741
Flags: MW
HStem: -234 33<60 78 258 276 60 78> 479 33
VStem: 117 103 561 103
LayerCount: 2
Fore
SplineSet
319 512 m 2
 462 512 649 472 664 252 c 0
 674 109 547 -3 381 -3 c 0
 307 -3 265 34 247 38 c 1
 546 -38 565 155 565 258 c 0
 565 482 378 477 316 477 c 0
 288 477 218 489 218 411 c 2
 218 411 218 385 218 372 c 2
 218 -135 l 2
 218 -203 240 -201 276 -201 c 1
 276 -234 l 1
 60 -234 l 1
 60 -201 l 1
 96 -201 117 -201 117 -135 c 2
 118 395 l 2
 117 426 130 490 77 462 c 1
 77 462 77 478 78 485 c 1
 78 488 77 484 78 485 c 1
 100 504 123 513 145 512 c 0
 182 511 319 512 319 512 c 2
EndSplineSet
Validated: 37
EndChar

StartChar: Q
Encoding: 81 81 49
Width: 793
Flags: MW
HStem: 490 33
VStem: 71 103 605 103
LayerCount: 2
Fore
SplineSet
744 -111 m 0
 762 -107 669 -151 595 -152 c 0
 480 -153 378 -101 330 -9 c 1
 163 12 71 120 71 256 c 0
 71 419 199 523 390 523 c 0
 580 523 708 419 708 256 c 0
 708 144 652 62 542 16 c 0
 506 1 434 -12 424 -11 c 1
 460 -85 546 -160 744 -111 c 0
602 256 m 0
 602 404 518 495 390 495 c 0
 261 495 177 404 177 256 c 0
 177 107 261 16 390 16 c 0
 518 16 602 107 602 256 c 0
EndSplineSet
Validated: 33
EndChar

StartChar: R
Encoding: 82 82 50
Width: 802
Flags: MW
HStem: 0 33 241 33 479 33<62 437>
VStem: 155 103 554 96<347 417>
LayerCount: 2
Fore
SplineSet
259 293 m 2
 259 280 264 274 282 274 c 0
 490 272 554 284 554 379 c 0
 554 455 481 479 311 477 c 0
 261 476 259 473 259 436 c 2
 259 293 l 2
259 88 m 2
 259 53 270 36 338 36 c 0
 341 36 344 36 346 36 c 2
 346 0 l 1
 62 0 l 1
 62 36 l 1
 66 36 70 36 74 36 c 0
 136 36 155 43 155 98 c 2
 155 414 l 2
 155 465 135 477 62 479 c 1
 62 512 l 1
 437 512 l 2
 577 512 650 465 650 380 c 0
 650 314 570 272 517 249 c 1
 610 212 661 135 672 34 c 1
 729 34 l 1
 729 0 l 1
 518 0 l 1
 518 34 l 1
 570 34 l 1
 561 162 518 240 396 240 c 0
 270 240 320 240 259 240 c 1
 259 88 l 2
EndSplineSet
Validated: 33
EndChar

StartChar: S
Encoding: 83 83 51
Width: 606
Flags: MW
HStem: -111 26 478 33
VStem: 60 112<390.5 414.5> 451 79
LayerCount: 2
Fore
SplineSet
214 -105 m 0
 193 -102 154 -90 130 -72 c 1
 179 -87 206 -88 296 -84 c 0
 380 -80 451 -1 449 69 c 0
 448 111 408 150 338 177 c 2
 193 229 l 2
 100 265 60 318 60 376 c 0
 60 453 153 511 282 511 c 0
 365 511 464 493 496 463 c 1
 496 495 l 1
 530 495 l 1
 530 360 l 1
 456 360 l 1
 451 468 386 480 296 480 c 0
 221 480 172 447 172 409 c 0
 172 372 205 334 277 310 c 2
 419 262 l 2
 519 228 562 166 561 107 c 0
 559 -3 470 -103 330 -111 c 0
 251 -114 233 -108 214 -105 c 0
EndSplineSet
Validated: 33
EndChar

StartChar: T
Encoding: 84 84 52
Width: 645
Flags: MW
HStem: 0 20
LayerCount: 2
Fore
SplineSet
403 478 m 0
 497 478 552 448 620 380 c 1
 620 383 l 1
 563 465 523 512 403 512 c 0
 209 512 49 512 49 512 c 1
 50 404 l 1
 69 404 l 1
 80 490 113 478 222 478 c 0
 228 478 233 478 238 478 c 0
 274 478 276 477 276 456 c 2
 276 110 l 2
 276 46 262 32 182 32 c 1
 182 0 l 1
 468 0 l 1
 468 32 l 1
 377 33 373 52 373 113 c 2
 373 456 l 2
 373 478 391 478 403 478 c 0
EndSplineSet
Validated: 41
EndChar

StartChar: U
Encoding: 85 85 53
Width: 802
Flags: MW
HStem: -12 20
LayerCount: 2
Fore
SplineSet
238 453 m 2
 238 508 160 542 100 489 c 1
 98 487 101 492 100 489 c 1
 100 482 98 466 98 466 c 1
 151 494 139 430 140 399 c 2
 140 200 l 2
 140 125 154 76 196 43 c 0
 239 6 308 -12 397 -12 c 0
 464 -12 524 0 566 23 c 1
 594 -4 643 -18 691 25 c 1
 693 27 690 22 691 25 c 1
 691 32 693 48 693 48 c 1
 640 20 655 79 655 110 c 0
 655 132 655 182 655 208 c 2
 655 398 l 2
 655 457 672 478 736 480 c 1
 736 512 l 1
 519 512 l 1
 519 480 l 1
 591 479 610 460 610 399 c 2
 610 198 l 2
 610 84 537 23 416 23 c 0
 293 23 238 78 238 200 c 2
 238 453 l 2
EndSplineSet
EndChar

StartChar: V
Encoding: 86 86 54
Width: 756
Flags: MW
HStem: -12 20
VStem: 304 244<479 512 478 512>
LayerCount: 2
Fore
SplineSet
705 478 m 1
 705 512 l 1
 548 512 l 1
 548 478 l 1
 600 478 l 1
 599 469 576 424 563 401 c 2
 408 116 l 1
 291 328 238 426 238 449 c 0
 238 471 251 476 304 479 c 1
 304 512 l 1
 43 512 l 1
 43 479 l 1
 125 479 125 449 158 387 c 2
 369 -12 l 1
 389 -12 l 1
 650 478 l 1
 705 478 l 1
EndSplineSet
Validated: 9
EndChar

StartChar: W
Encoding: 87 87 55
Width: 964
Flags: MW
HStem: -12 20 479 33<862 883>
VStem: 441 87 723 160
LayerCount: 2
Fore
SplineSet
341 137 m 1
 442 363 l 1
 442 478 l 1
 400 478 l 1
 400 512 l 1
 528 512 l 1
 528 366 l 1
 638 125 l 1
 763 397 l 2
 774 422 781 440 781 447 c 0
 781 465 779 478 721 478 c 1
 721 512 l 1
 883 512 l 1
 883 479 l 1
 841 479 833 447 812 399 c 2
 630 -12 l 1
 610 -12 l 1
 463 314 l 1
 322 -12 l 1
 304 -12 l 1
 123 398 l 2
 109 429 98 492 59 466 c 1
 59 466 61 482 61 489 c 0
 62 492 61 487 63 489 c 0
 123 542 194 507 206 452 c 1
 341 137 l 1
EndSplineSet
Validated: 33
EndChar

StartChar: X
Encoding: 88 88 56
Width: 727
Flags: MW
HStem: 0 33 238 33 479 33
VStem: 47 192<0 34 0 34> 453 192<478 512 478 512>
LayerCount: 2
Fore
SplineSet
354 238 m 0
 277 238 213 169 195 90 c 1
 193 52 209 34 239 34 c 1
 239 0 l 1
 47 0 l 1
 47 34 l 1
 78 34 84 53 107 112 c 0
 136 175 191 223 258 250 c 1
 175 273 134 329 115 401 c 0
 102 465 98 478 67 478 c 1
 67 512 l 1
 259 512 l 1
 259 478 l 1
 229 478 214 462 209 428 c 1
 218 336 236 274 353 274 c 0
 482 274 494 336 503 428 c 1
 498 462 483 478 453 478 c 1
 453 512 l 1
 645 512 l 1
 645 478 l 1
 614 478 610 465 597 401 c 0
 578 329 537 273 454 250 c 1
 521 223 576 175 605 112 c 0
 628 53 634 34 665 34 c 1
 665 0 l 1
 473 0 l 1
 473 34 l 1
 503 34 519 52 517 90 c 1
 499 169 448 238 354 238 c 0
EndSplineSet
Validated: 33
EndChar

StartChar: Y
Encoding: 89 89 57
Width: 692
Flags: MW
HStem: 0 33 241 33 479 33
VStem: 55 192<478 512 478 512> 291 103 441 192<478 512 478 512>
LayerCount: 2
Fore
SplineSet
394 243 m 1
 394 90 l 2
 394 45 417 33 485 32 c 1
 485 0 l 1
 205 0 l 1
 205 32 l 2
 207 32 208 32 209 32 c 0
 272 32 295 48 295 96 c 2
 295 243 l 1
 180 245 122 329 103 401 c 0
 90 465 86 478 55 478 c 1
 55 512 l 1
 247 512 l 1
 247 478 l 1
 217 478 202 462 197 428 c 1
 206 336 224 274 341 274 c 0
 470 274 482 336 491 428 c 1
 486 462 471 478 441 478 c 1
 441 512 l 1
 633 512 l 1
 633 478 l 1
 602 478 598 465 585 401 c 0
 566 329 508 243 394 243 c 1
EndSplineSet
Validated: 1
EndChar

StartChar: Z
Encoding: 90 90 58
Width: 697
Flags: MW
HStem: 0 33 479 33
LayerCount: 2
Fore
SplineSet
49 0 m 1
 473 478 l 1
 297 478 l 2
 183 478 132 466 117 377 c 1
 80 377 l 1
 100 512 l 1
 621 512 l 1
 200 34 l 1
 396 34 l 2
 525 34 576 51 604 143 c 1
 637 143 l 1
 637 143 639 79 626 42 c 0
 620 25 606 0 606 0 c 1
 49 0 l 1
EndSplineSet
Validated: 33
EndChar

StartChar: bracketleft
Encoding: 91 91 59
Width: 431
Flags: MW
HStem: -229 33 660 33
VStem: 125 103
LayerCount: 2
Fore
SplineSet
125 -229 m 1
 125 693 l 1
 382 693 l 1
 382 664 l 1
 367 664 354 664 342 664 c 0
 239 664 226 651 226 575 c 2
 226 -119 l 2
 226 -189 241 -200 349 -200 c 0
 359 -200 370 -200 382 -200 c 1
 382 -229 l 1
 125 -229 l 1
EndSplineSet
Validated: 1
EndChar

StartChar: backslash
Encoding: 92 92 60
Width: 359
Flags: MW
HStem: 687 20<18 71 71 71>
LayerCount: 2
Fore
SplineSet
368 -93 m 1
 316 -93 l 1
 18 707 l 1
 71 707 l 1
 368 -93 l 1
EndSplineSet
Validated: 1
EndChar

StartChar: bracketright
Encoding: 93 93 61
Width: 431
Flags: MW
HStem: -229 33 660 33
VStem: 223 103
LayerCount: 2
Fore
SplineSet
326 693 m 1
 326 -229 l 1
 70 -229 l 1
 70 -200 l 1
 83 -200 96 -200 107 -200 c 0
 212 -200 226 -186 226 -110 c 2
 226 582 l 2
 226 654 211 664 104 664 c 0
 94 664 82 664 70 664 c 1
 70 693 l 1
 326 693 l 1
EndSplineSet
Validated: 1
EndChar

StartChar: asciicircum
Encoding: 94 94 62
Width: 978
Flags: W
LayerCount: 2
Fore
SplineSet
431 528 m 1
 515 528 l 1
 737 324 l 1
 695 324 l 1
 473 476 l 1
 251 324 l 1
 208 324 l 1
 431 528 l 1
EndSplineSet
Validated: 1
EndChar

StartChar: underscore
Encoding: 95 95 63
Width: 490
Flags: MW
HStem: -175 51
LayerCount: 2
Fore
SplineSet
30 -123 m 1
 474 -123 l 1
 474 -175 l 1
 30 -175 l 1
 30 -123 l 1
EndSplineSet
Validated: 1
EndChar

StartChar: a
Encoding: 97 97 64
Width: 737
Flags: MW
HStem: 0 33 479 33
VStem: 72 103 548 103
LayerCount: 2
Fore
SplineSet
521 37 m 1
 503 33 446 -3 372 -4 c 0
 204 -6 78 102 72 245 c 0
 65 386 190 506 350 512 c 0
 510 519 645 406 651 264 c 0
 651 255 652 245 652 236 c 2
 652 34 l 1
 684 34 l 1
 684 0 l 1
 549 0 l 1
 549 225 l 2
 549 234 549 243 549 252 c 0
 546 394 488 482 359 483 c 0
 233 484 176 369 175 257 c 0
 174 156 222 -39 521 37 c 1
EndSplineSet
Validated: 37
EndChar

StartChar: b
Encoding: 98 98 65
Width: 727
Flags: MW
HStem: -3 33 711 33
VStem: 83 103<273 284 284 710> 560 103
LayerCount: 2
Fore
SplineSet
44 25 m 1
 43 26 44 22 44 25 c 1
 43 32 43 48 43 48 c 1
 96 20 83 84 84 115 c 2
 84 115 84 237 84 245 c 0
 84 254 83 264 83 273 c 2
 83 710 l 1
 42 710 l 1
 42 744 l 1
 227 744 l 1
 227 710 l 1
 186 710 l 1
 186 284 l 2
 186 275 186 266 186 257 c 0
 189 115 247 27 376 26 c 0
 502 25 559 140 560 252 c 0
 561 353 513 548 214 472 c 1
 232 476 289 512 363 513 c 0
 531 515 657 407 663 264 c 0
 670 123 545 3 385 -3 c 0
 312 -6 244 16 191 54 c 1
 174 9 104 -28 44 25 c 1
EndSplineSet
Validated: 37
EndChar

StartChar: c
Encoding: 99 99 66
Width: 639
Flags: MW
HStem: -4 20 317 135<568 602 568 602 527 602> 479 33
VStem: 56 103 568 34<420 452 317 452>
LayerCount: 2
Fore
SplineSet
343 483 m 0
 217 484 160 369 159 257 c 0
 158 156 206 -39 505 37 c 1
 487 33 430 -3 356 -4 c 0
 188 -6 62 102 56 245 c 0
 49 386 174 506 334 512 c 0
 426 516 511 481 568 420 c 1
 568 452 l 1
 602 452 l 1
 602 317 l 1
 527 317 l 1
 509 420 451 482 343 483 c 0
EndSplineSet
Validated: 33
EndChar

StartChar: d
Encoding: 100 100 67
Width: 763
Flags: MW
HStem: -3 33 711 33
VStem: 73 103 550 103<257 273 273 284 284 710>
LayerCount: 2
Fore
SplineSet
695 48 m 1
 695 48 693 32 693 25 c 1
 692 22 695 27 693 25 c 1
 633 -28 562 9 545 54 c 1
 492 16 424 -6 351 -3 c 0
 191 3 66 123 73 264 c 0
 79 407 205 515 373 513 c 0
 447 512 504 476 522 472 c 1
 223 548 175 353 176 252 c 0
 177 140 234 25 360 26 c 0
 489 27 547 115 550 257 c 0
 550 266 550 275 550 284 c 2
 550 710 l 1
 509 710 l 1
 509 744 l 1
 694 744 l 1
 694 710 l 1
 653 710 l 1
 653 273 l 2
 653 264 653 254 653 245 c 0
 653 237 653 115 653 115 c 2
 654 84 642 20 695 48 c 1
EndSplineSet
Validated: 37
EndChar

StartChar: e
Encoding: 101 101 68
Width: 698
Flags: MW
HStem: -4 20 241 33 479 33
VStem: 57 103 533 103<240 274>
LayerCount: 2
Fore
SplineSet
506 37 m 1
 488 33 431 -3 357 -4 c 0
 189 -6 63 102 57 245 c 0
 50 386 175 506 335 512 c 0
 427 516 511 481 568 420 c 1
 568 420 608 379 624 330 c 0
 635 297 637 275 636 240 c 1
 160 240 l 1
 165 136 223 -35 506 37 c 1
161 274 m 1
 533 274 l 1
 523 419 452 482 344 483 c 0
 224 484 165 375 161 274 c 1
EndSplineSet
Validated: 37
EndChar

StartChar: f
Encoding: 102 102 69
Width: 354
Flags: MW
HStem: 479 33
VStem: 122 103
LayerCount: 2
Fore
SplineSet
371 744 m 1
 262 723 220 613 223 512 c 1
 364 512 l 1
 364 478 l 1
 221 478 l 1
 220 468 220 459 220 450 c 0
 220 441 220 432 220 423 c 2
 220 4 l 2
 222 -11 219 -21 219 -30 c 0
 213 -172 139 -264 -21 -257 c 1
 117 -231 117 -109 117 -18 c 0
 117 -9 119 0 117 4 c 2
 117 434 l 2
 117 443 118 453 118 462 c 0
 118 467 118 473 118 478 c 1
 54 478 l 1
 54 512 l 1
 122 512 l 1
 118 647 230 750 371 744 c 1
EndSplineSet
Validated: 33
EndChar

StartChar: g
Encoding: 103 103 70
Width: 720
Flags: MW
HStem: -1 120 492 20
VStem: 80 103 310 103<34 97 97 97> 544 96
LayerCount: 2
Fore
SplineSet
544 301 m 0
 540 416 484 487 359 488 c 0
 236 489 181 396 181 306 c 0
 180 224 233 119 355 119 c 1
 475 113 547 195 544 301 c 0
637 345 m 0
 640 334 642 323 643 311 c 0
 648 206 548 117 413 98 c 1
 413 34 l 1
 615 34 l 1
 629 -152 489 -264 321 -262 c 0
 247 -261 154 -217 172 -221 c 0
 529 -309 517 -2 513 -2 c 2
 310 0 l 1
 310 97 l 1
 183 114 84 196 80 296 c 0
 74 410 194 507 350 512 c 0
 422 514 488 496 540 464 c 1
 563 509 628 534 683 486 c 1
 685 484 682 489 683 486 c 1
 683 479 685 463 685 463 c 1
 632 491 637 425 636 394 c 2
 636 394 638 366 637 345 c 0
EndSplineSet
Validated: 33
EndChar

StartChar: h
Encoding: 104 104 71
Width: 728
Flags: MW
HStem: 0 33 479 33 711 33
VStem: 97 103<34 257 451 710> 574 103
LayerCount: 2
Fore
SplineSet
677 262 m 0
 680 59 567 -75 377 -101 c 1
 585 -18 571 153 574 250 c 0
 578 376 514 482 385 483 c 0
 259 484 201 369 200 257 c 0
 199 156 200 34 200 34 c 1
 241 34 l 1
 241 0 l 1
 56 0 l 1
 56 34 l 1
 97 34 l 1
 97 710 l 1
 56 710 l 1
 56 744 l 1
 241 744 l 1
 241 710 l 1
 200 710 l 1
 200 451 l 1
 256 490 310 510 376 512 c 0
 536 519 671 404 677 262 c 0
EndSplineSet
Validated: 33
EndChar

StartChar: i
Encoding: 105 105 72
Width: 258
Flags: MW
HStem: 0 33 479 33 547 109
VStem: 96 103<34 478>
LayerCount: 2
Fore
SplineSet
199 0 m 1
 55 0 l 1
 55 34 l 1
 96 34 l 1
 96 512 l 1
 240 512 l 1
 240 478 l 1
 199 478 l 1
 199 0 l 1
98 600 m 4
 98 631 123 656 154 656 c 4
 185 656 210 631 210 600 c 4
 210 569 185 544 154 544 c 4
 123 544 98 569 98 600 c 4
EndSplineSet
Validated: 1
EndChar

StartChar: j
Encoding: 106 106 73
Width: 258
Flags: MW
HStem: 479 33 547 109
VStem: 96 103
LayerCount: 2
Fore
SplineSet
98 600 m 0
 98 631 123 656 154 656 c 0
 185 656 210 631 210 600 c 0
 210 569 185 544 154 544 c 0
 123 544 98 569 98 600 c 0
197 107 m 2
 197 76 187 9 240 37 c 1
 240 37 238 21 238 14 c 1
 237 11 240 16 238 14 c 1
 225 2 210 -5 197 -9 c 1
 197 -14 197 -26 197 -30 c 0
 191 -172 117 -264 -43 -257 c 1
 95 -231 96 -109 96 -18 c 0
 96 -9 96 31 96 34 c 2
 96 512 l 1
 240 512 l 1
 240 478 l 1
 197 478 l 1
 197 107 l 2
EndSplineSet
Validated: 33
EndChar

StartChar: k
Encoding: 107 107 74
Width: 720
Flags: MW
HStem: 0 20 34 205 273 205
VStem: 239 236
LayerCount: 2
Fore
SplineSet
56 718 m 1
 54 716 57 721 56 718 c 1
 56 711 54 695 54 695 c 1
 107 723 96 659 97 628 c 2
 97 34 l 1
 56 34 l 1
 56 0 l 1
 241 0 l 1
 241 34 l 1
 200 34 l 1
 200 240 l 1
 261 240 211 240 337 240 c 0
 459 240 518 162 527 34 c 1
 475 34 l 1
 475 0 l 1
 660 0 l 1
 660 34 l 1
 629 34 l 1
 618 135 549 213 456 250 c 1
 567 281 603 371 612 478 c 1
 646 478 l 1
 646 512 l 1
 461 512 l 1
 461 478 l 1
 510 478 l 1
 501 357 494 281 383 274 c 1
 200 274 l 1
 200 688 l 2
 200 732 116 771 56 718 c 1
EndSplineSet
Validated: 41
EndChar

StartChar: l
Encoding: 108 108 75
Width: 258
Flags: MW
HStem: 0 33
VStem: 96 103<34 503>
LayerCount: 2
Fore
SplineSet
199 0 m 1
 55 0 l 1
 55 34 l 1
 96 34 l 1
 96 34 96 508 96 515 c 0
 102 657 176 749 336 742 c 1
 198 716 199 594 199 503 c 0
 199 494 199 0 199 0 c 1
EndSplineSet
Validated: 33
EndChar

StartChar: m
Encoding: 109 109 76
Width: 1151
Flags: MW
HStem: 0 33 478 33
VStem: 88 103<34 244 0 398> 519 103 951 103
LayerCount: 2
Fore
SplineSet
88 398 m 2
 88 429 96 489 43 461 c 1
 43 461 43 476 44 483 c 0
 44 486 43 483 44 484 c 0
 104 537 174 504 191 459 c 1
 237 494 296 514 364 511 c 0
 422 509 495 499 571 411 c 1
 621 477 719 510 778 512 c 0
 938 519 1048 404 1054 262 c 0
 1057 59 944 -75 754 -101 c 1
 962 -18 948 153 951 250 c 0
 955 376 916 482 787 483 c 0
 661 484 623 369 622 257 c 0
 621 156 622 0 622 0 c 1
 478 0 l 1
 478 34 l 1
 520 34 l 1
 520 34 520 150 520 251 c 0
 520 398 481 483 355 482 c 0
 226 481 192 356 191 244 c 0
 190 143 191 0 191 0 c 1
 47 0 l 1
 47 34 l 1
 88 34 l 1
 88 398 l 2
EndSplineSet
Validated: 37
EndChar

StartChar: n
Encoding: 110 110 77
Width: 727
Flags: W
LayerCount: 2
Fore
SplineSet
100 34 m 1
 58 34 l 1
 58 0 l 1
 202 0 l 1
 202 0 201 156 202 257 c 0
 203 369 253 484 379 483 c 0
 508 482 574 376 570 250 c 0
 567 153 581 -18 373 -101 c 1
 563 -75 676 59 673 262 c 0
 667 404 530 519 370 512 c 0
 340 511 272 500 212 461 c 0
 209 459 205 457 202 454 c 1
 185 499 115 532 55 479 c 0
 54 478 55 481 55 478 c 0
 54 471 54 456 54 456 c 1
 107 484 100 424 100 393 c 0
 101 294 100 34 100 34 c 1
EndSplineSet
Validated: 37
EndChar

StartChar: o
Encoding: 111 111 78
Width: 720
Flags: MW
HStem: -4 33 479 33
VStem: 72 103 548 103
LayerCount: 2
Fore
SplineSet
549 252 m 0
 546 394 488 482 359 483 c 0
 233 484 176 369 175 257 c 0
 174 156 229 27 355 26 c 1
 479 19 552 121 549 252 c 0
651 264 m 0
 658 122 532 2 372 -4 c 0
 212 -10 78 102 72 245 c 0
 65 386 190 506 350 512 c 0
 510 519 645 406 651 264 c 0
EndSplineSet
Validated: 33
EndChar

StartChar: p
Encoding: 112 112 79
Width: 727
Flags: MW
HStem: -234 33 480 33
VStem: 83 103<-200 226 226 237 237 241.5> 560 103
LayerCount: 2
Fore
SplineSet
663 246 m 0
 657 103 531 -5 363 -3 c 0
 289 -2 232 34 214 38 c 1
 513 -38 561 157 560 258 c 0
 559 370 502 485 376 484 c 0
 247 483 189 395 186 253 c 0
 186 244 186 235 186 226 c 2
 186 -200 l 1
 227 -200 l 1
 227 -234 l 1
 42 -234 l 1
 42 -200 l 1
 83 -200 l 1
 83 237 l 2
 83 246 84 256 84 265 c 0
 84 273 84 395 84 395 c 2
 83 426 96 490 43 462 c 1
 43 462 43 478 44 485 c 1
 44 488 43 484 44 485 c 1
 104 538 174 501 191 456 c 1
 244 494 312 516 385 513 c 0
 545 507 670 387 663 246 c 0
EndSplineSet
Validated: 37
EndChar

StartChar: q
Encoding: 113 113 80
Width: 763
Flags: MW
HStem: -234 33 480 33
VStem: 73 103 550 103<-200 226 226 237 -200 253 -200 253>
LayerCount: 2
Fore
SplineSet
695 462 m 1
 642 490 653 426 652 395 c 2
 652 395 652 273 652 265 c 0
 652 256 653 246 653 237 c 2
 653 -200 l 1
 694 -200 l 1
 694 -234 l 1
 509 -234 l 1
 509 -200 l 1
 550 -200 l 1
 550 226 l 2
 550 235 550 244 550 253 c 0
 547 395 489 483 360 484 c 0
 234 485 177 370 176 258 c 0
 175 157 223 -38 522 38 c 1
 504 34 447 -2 373 -3 c 0
 205 -5 79 103 73 246 c 0
 66 387 191 507 351 513 c 0
 424 516 492 494 545 456 c 1
 562 501 633 538 693 485 c 1
 695 483 692 488 693 485 c 1
 693 478 695 462 695 462 c 1
EndSplineSet
Validated: 33
EndChar

StartChar: r
Encoding: 114 114 81
Width: 496
Flags: MW
HStem: 0 33
LayerCount: 2
Fore
SplineSet
245 34 m 1
 245 0 l 1
 97 0 l 1
 97 0 96 384 96 391 c 0
 95 422 105 492 52 464 c 1
 52 464 51 480 52 487 c 1
 52 490 51 486 52 487 c 1
 99 528 181 515 193 457 c 1
 245 496 318 518 391 517 c 0
 465 516 558 472 540 476 c 0
 183 564 199 262 199 281 c 0
 199 288 199 110 199 34 c 1
 245 34 l 1
EndSplineSet
Validated: 37
EndChar

StartChar: s
Encoding: 115 115 82
Width: 602
Flags: MW
HStem: -111 26 478 33
VStem: 57 112<390.5 414.5> 446 112
LayerCount: 2
Fore
SplineSet
293 480 m 0
 218 480 169 447 169 409 c 0
 169 372 202 334 274 310 c 2
 416 262 l 2
 516 228 559 166 558 107 c 0
 556 -3 467 -103 327 -111 c 0
 248 -114 230 -108 211 -105 c 0
 190 -102 151 -90 127 -72 c 1
 176 -87 203 -88 293 -84 c 0
 377 -80 448 -1 446 69 c 0
 445 111 405 150 335 177 c 2
 190 229 l 2
 97 265 57 318 57 376 c 0
 57 453 150 511 279 511 c 0
 362 511 445 496 493 464 c 0
 504 457 514 472 516 487 c 1
 532 487 l 1
 552 333 l 1
 522 335 l 1
 480 477 383 480 293 480 c 0
EndSplineSet
Validated: 33
EndChar

StartChar: t
Encoding: 116 116 83
Width: 354
Flags: W
LayerCount: 2
Fore
SplineSet
218 565 m 1
 206 620 135 655 75 602 c 1
 73 600 76 605 75 602 c 1
 75 595 73 579 73 579 c 1
 126 607 115 543 116 512 c 1
 56 512 l 1
 56 478 l 1
 116 478 l 1
 117 468 116 459 116 450 c 0
 116 441 116 432 116 423 c 2
 116 160 l 2
 114 145 117 135 117 126 c 0
 123 -16 197 -108 357 -101 c 1
 219 -75 219 47 219 138 c 0
 219 147 217 156 219 160 c 2
 219 434 l 2
 219 443 219 453 219 462 c 0
 219 467 219 473 219 478 c 1
 342 478 l 1
 342 512 l 1
 218 512 l 1
 218 565 l 1
EndSplineSet
Validated: 41
EndChar

StartChar: u
Encoding: 117 117 84
Width: 747
Flags: MW
HStem: -5 20
LayerCount: 2
Fore
SplineSet
51 483 m 1
 49 481 52 486 51 483 c 1
 51 476 49 460 49 460 c 1
 102 488 91 424 92 393 c 2
 92 393 92 355 92 254 c 0
 92 107 220 -8 380 -1 c 0
 412 0 479 5 543 50 c 1
 560 5 631 -32 691 21 c 1
 693 23 690 18 691 21 c 1
 691 28 693 44 693 44 c 1
 640 16 651 80 650 111 c 2
 650 111 650 256 650 260 c 0
 650 359 650 477 650 477 c 1
 692 477 l 1
 692 511 l 1
 548 511 l 1
 548 511 548 355 548 254 c 0
 548 104 497 27 371 28 c 0
 242 29 194 120 194 260 c 0
 194 358 194 446 194 446 c 1
 182 501 111 536 51 483 c 1
EndSplineSet
Validated: 41
EndChar

StartChar: v
Encoding: 118 118 85
Width: 733
Flags: MW
HStem: -9 20
VStem: 86 103 543 103
LayerCount: 2
Fore
SplineSet
364 -9 m 1
 328 0 l 2
 180 37 86 119 86 266 c 0
 86 367 86 397 86 397 c 2
 85 428 96 488 43 460 c 1
 43 460 45 476 45 483 c 1
 46 486 43 481 45 483 c 1
 105 536 176 501 188 446 c 1
 188 446 188 370 188 272 c 0
 188 132 223 93 324 30 c 1
 362 10 l 1
 407 29 l 1
 508 92 544 130 544 270 c 0
 544 368 544 448 544 448 c 1
 556 503 627 538 687 485 c 1
 689 483 686 488 687 485 c 1
 687 478 689 462 689 462 c 1
 636 490 647 426 646 395 c 2
 646 395 646 365 646 264 c 0
 646 117 536 26 398 -2 c 2
 364 -9 l 1
EndSplineSet
Validated: 33
EndChar

StartChar: w
Encoding: 119 119 86
Width: 1162
Flags: MW
HStem: -9 20 479 33
VStem: 86 103 543 103 953 103
LayerCount: 2
Fore
SplineSet
1056 264 m 0
 1056 117 946 26 808 -2 c 2
 774 -9 l 1
 738 0 l 2
 671 17 611 47 570 83 c 1
 526 40 465 12 398 -2 c 2
 364 -9 l 1
 328 0 l 2
 180 37 86 119 86 266 c 0
 86 367 86 397 86 397 c 2
 85 428 96 488 43 460 c 1
 43 460 45 476 45 483 c 1
 46 486 43 481 45 483 c 1
 105 536 176 501 188 446 c 1
 188 446 188 370 188 272 c 0
 188 132 223 93 324 30 c 1
 362 10 l 1
 407 29 l 1
 508 92 544 130 544 270 c 0
 544 368 544 478 544 478 c 1
 502 478 l 1
 502 512 l 1
 646 512 l 1
 646 512 646 365 646 264 c 0
 646 219 635 178 617 144 c 1
 637 99 675 67 734 30 c 1
 772 10 l 1
 817 29 l 1
 918 92 954 130 954 270 c 0
 954 368 954 478 954 478 c 1
 912 478 l 1
 912 512 l 1
 1056 512 l 1
 1056 512 1056 365 1056 264 c 0
EndSplineSet
Validated: 33
EndChar

StartChar: x
Encoding: 120 120 87
Width: 720
Flags: MW
HStem: 0 20 273 205
VStem: 253 208<478 512 478 512>
LayerCount: 2
Fore
SplineSet
381 236 m 0
 473 219 519 146 527 34 c 1
 475 34 l 1
 475 0 l 1
 660 0 l 1
 660 34 l 1
 629 34 l 1
 618 135 549 213 456 250 c 1
 567 281 603 371 612 478 c 1
 646 478 l 1
 646 512 l 1
 461 512 l 1
 461 478 l 1
 510 478 l 1
 501 357 494 281 383 274 c 1
 331 274 l 1
 220 281 213 357 204 478 c 1
 253 478 l 1
 253 512 l 1
 68 512 l 1
 68 478 l 1
 102 478 l 1
 111 371 147 281 258 250 c 1
 165 213 96 135 85 34 c 1
 54 34 l 1
 54 0 l 1
 239 0 l 1
 239 34 l 1
 187 34 l 1
 195 144 240 217 330 236 c 0
 344 238 367 239 381 236 c 0
EndSplineSet
Validated: 41
EndChar

StartChar: y
Encoding: 121 121 88
Width: 747
Flags: W
LayerCount: 2
Fore
SplineSet
324 -2 m 1
 322 -17 325 -27 325 -36 c 0
 331 -178 405 -265 565 -258 c 1
 427 -232 426 -111 426 -20 c 0
 426 -11 424 -2 426 2 c 2
 426 2 502 21 543 50 c 0
 606 98 650 174 650 215 c 2
 650 215 650 256 650 260 c 0
 650 359 650 478 650 478 c 1
 692 478 l 1
 692 512 l 1
 548 512 l 1
 548 512 548 355 548 254 c 0
 548 104 497 26 371 27 c 0
 242 28 194 120 194 260 c 0
 194 358 194 446 194 446 c 1
 182 501 111 536 51 483 c 1
 49 481 52 486 51 483 c 1
 51 476 49 460 49 460 c 1
 102 488 91 424 92 393 c 2
 92 393 92 355 92 254 c 0
 92 125 191 15 324 -2 c 1
EndSplineSet
Validated: 41
EndChar

StartChar: z
Encoding: 122 122 89
Width: 636
Flags: MW
HStem: 0 20
LayerCount: 2
Fore
SplineSet
205 34 m 1
 592 503 l 1
 592 512 l 1
 74 512 l 1
 74 366 l 1
 108 366 l 1
 108 478 l 1
 438 478 l 1
 58 24 l 1
 58 0 l 1
 567 0 l 1
 568 34 l 1
 205 34 l 1
EndSplineSet
Validated: 9
EndChar

StartChar: braceleft
Encoding: 123 123 90
Width: 661
Flags: MW
HStem: -119 26<434 527 521 527> 295 33 714 26<521 527>
VStem: 293 96
LayerCount: 2
Fore
SplineSet
527 740 m 2
 527 714 l 1
 413 713 389 680 389 585 c 2
 389 516 l 2
 389 390 370 334 227 310 c 1
 370 286 389 231 389 104 c 2
 389 35 l 2
 389 -60 412 -92 527 -93 c 1
 527 -119 l 2
 524 -119 522 -119 521 -119 c 0
 347 -119 296 -77 296 50 c 2
 296 151 l 2
 296 250 265 286 134 295 c 1
 134 326 l 1
 264 335 296 369 296 470 c 2
 296 571 l 2
 296 698 347 740 521 740 c 0
 522 740 524 740 527 740 c 2
EndSplineSet
Validated: 1
EndChar

StartChar: bar
Encoding: 124 124 91
Width: 661
Flags: MW
VStem: 287 57<-236 764 -236 764>
LayerCount: 2
Fore
SplineSet
287 764 m 1
 344 764 l 1
 344 -236 l 1
 287 -236 l 1
 287 764 l 1
EndSplineSet
Validated: 1
EndChar

StartChar: braceright
Encoding: 125 125 92
Width: 661
Flags: MW
HStem: -119 26<133 139 133 134.5> 295 33 714 26<133 139>
VStem: 272 96
LayerCount: 2
Fore
SplineSet
133 740 m 2
 136 740 138 740 139 740 c 0
 313 740 365 698 365 571 c 2
 365 470 l 2
 365 369 397 335 527 326 c 1
 527 295 l 1
 397 286 365 252 365 151 c 2
 365 50 l 2
 365 -77 313 -119 139 -119 c 0
 138 -119 136 -119 133 -119 c 2
 133 -93 l 1
 247 -92 272 -60 272 35 c 2
 272 104 l 2
 272 231 290 286 433 310 c 1
 290 334 272 390 272 516 c 2
 272 585 l 2
 272 680 247 713 133 714 c 1
 133 740 l 2
EndSplineSet
Validated: 1
EndChar

StartChar: asciitilde
Encoding: 126 126 93
Width: 1102
Flags: MW
HStem: 231 69<671.5 736>
LayerCount: 2
Fore
SplineSet
926 376 m 1
 926 300 l 1
 847 254 774 231 698 231 c 0
 637 231 584 249 529 265 c 0
 473 281 420 297 360 297 c 0
 289 297 220 270 134 220 c 1
 134 296 l 1
 217 343 292 366 361 366 c 0
 424 366 478 352 532 336 c 0
 590 319 643 300 700 300 c 0
 774 300 844 327 926 376 c 1
EndSplineSet
Validated: 1
EndChar

StartChar: quotesingle
Encoding: 39 39 94
Width: 167
Flags: MW
VStem: 67 79
LayerCount: 2
Fore
SplineSet
114 311 m 1
 100 311 l 1
 69 477 l 2
 68 482 67 485 67 490 c 0
 67 514 82 528 106 528 c 0
 131 528 145 515 145 491 c 0
 145 487 145 482 144 477 c 2
 114 311 l 1
EndSplineSet
Validated: 1
EndChar

StartChar: grave
Encoding: 96 96 95
Width: 661
Flags: MW
HStem: 694 20<194.5 217.5>
LayerCount: 2
Fore
SplineSet
433 539 m 1
 394 539 l 1
 200 639 l 2
 176 652 164 665 164 679 c 0
 164 699 181 714 208 714 c 0
 227 714 242 703 264 685 c 2
 433 539 l 1
EndSplineSet
Validated: 1
EndChar

StartChar: registered
Encoding: 174 174 96
Width: 1086
Flags: MW
HStem: -16 42 140 20 315 20 487 26 637 42<476 571>
VStem: 107 53 347 72 611 96 887 53
LayerCount: 2
Fore
SplineSet
524 679 m 0
 634 679 743 641 821 575 c 0
 896 511 940 422 940 328 c 0
 940 239 895 150 812 82 c 0
 734 18 634 -16 517 -16 c 0
 412 -16 308 21 229 86 c 0
 149 152 107 237 107 331 c 0
 107 423 149 509 228 576 c 0
 306 642 413 679 524 679 c 0
524 637 m 0
 428 637 335 604 266 546 c 0
 197 487 161 412 161 331 c 0
 161 248 198 174 268 116 c 0
 338 57 426 27 523 27 c 0
 620 27 710 58 779 116 c 0
 848 175 886 251 886 331 c 0
 886 412 847 492 780 548 c 0
 713 604 618 637 524 637 c 0
424 352 m 2
 424 344 426 339 440 339 c 0
 591 338 638 346 638 416 c 0
 638 471 585 489 461 487 c 0
 424 486 424 484 424 458 c 2
 424 352 l 2
424 204 m 2
 424 179 431 166 480 166 c 0
 482 166 485 166 487 166 c 2
 487 140 l 1
 279 140 l 1
 279 166 l 2
 282 166 285 166 288 166 c 0
 334 166 347 172 347 211 c 2
 347 441 l 2
 347 478 333 487 279 489 c 1
 279 513 l 1
 552 513 l 2
 655 513 707 478 707 417 c 0
 707 369 649 338 611 321 c 1
 678 295 715 238 723 164 c 1
 765 164 l 1
 765 140 l 1
 612 140 l 1
 612 164 l 1
 649 164 l 1
 642 258 612 315 523 315 c 0
 431 315 467 315 424 315 c 1
 424 204 l 2
EndSplineSet
Validated: 33
EndChar

StartChar: copyright
Encoding: 169 169 97
Width: 1086
Flags: MW
HStem: -16 42 105 26<480.5 566> 518 20<448.5 564> 637 42<476 571>
VStem: 107 53 262 87 887 53<291.5 371>
LayerCount: 2
Fore
SplineSet
524 679 m 0
 632 679 739 642 817 578 c 0
 894 514 940 424 940 331 c 0
 940 240 896 153 817 86 c 0
 739 20 636 -16 523 -16 c 0
 412 -16 310 20 229 86 c 0
 149 152 107 236 107 331 c 0
 107 423 150 509 229 576 c 0
 307 642 413 679 524 679 c 0
524 637 m 0
 428 637 335 604 266 546 c 0
 197 487 161 412 161 331 c 0
 161 248 198 174 268 116 c 0
 338 58 426 27 523 27 c 0
 622 27 710 58 779 116 c 0
 848 175 887 252 887 331 c 0
 887 411 847 492 780 548 c 0
 713 604 618 637 524 637 c 0
721 210 m 1
 721 207 l 1
 675 142 610 105 522 105 c 0
 364 105 262 190 262 319 c 0
 262 448 371 538 526 538 c 0
 602 538 646 514 670 514 c 0
 684 514 693 522 693 535 c 1
 707 535 l 1
 722 401 l 1
 707 401 l 1
 679 476 621 516 539 516 c 0
 425 516 348 440 348 322 c 0
 348 207 427 131 534 131 c 0
 610 131 666 155 721 210 c 1
EndSplineSet
Validated: 1
EndChar

StartChar: trademark
Encoding: 8482 8482 98
Width: 784
Flags: MW
HStem: 390 20 626 20<58 235 58 58 326 440 440 440>
VStem: 360 79 620 53
LayerCount: 2
Fore
SplineSet
235 629 m 0
 282 629 310 614 344 580 c 1
 344 583 l 1
 315 624 295 646 235 646 c 0
 138 646 58 646 58 646 c 1
 59 592 l 1
 68 592 l 1
 74 635 90 629 145 629 c 0
 148 629 150 629 153 629 c 0
 171 629 172 630 172 618 c 2
 172 445 l 2
 172 413 165 406 125 406 c 1
 125 390 l 1
 268 390 l 1
 268 406 l 1
 222 408 220 416 220 448 c 2
 220 618 l 2
 220 629 229 629 235 629 c 0
360 629 m 1
 326 629 l 1
 326 646 l 1
 440 646 l 1
 440 629 l 1
 416 629 l 1
 517 452 l 1
 610 623 l 1
 618 648 662 661 692 636 c 1
 693 635 691 636 692 636 c 1
 692 631 694 623 694 623 c 1
 668 637 673 603 673 589 c 2
 674 433 l 2
 674 405 677 408 715 406 c 1
 713 390 l 1
 581 390 l 1
 581 406 l 1
 618 407 623 407 623 437 c 2
 623 604 l 1
 507 390 l 1
 498 390 l 1
 382 604 l 1
 382 440 l 2
 382 409 388 406 425 406 c 1
 425 390 l 1
 319 390 l 1
 319 406 l 1
 353 406 360 409 360 442 c 2
 360 629 l 1
EndSplineSet
Validated: 37
EndChar

StartChar: apple
Encoding: 63743 63743 99
Width: 993
Flags: MW
HStem: -11 154 171 109 299 58 463 26<631 648>
VStem: 89 131 241 72 343 305<139 222.5 187.5 209 209 209 187.5 493> 678 72
LayerCount: 2
Fore
SplineSet
548 540 m 1
 399 530 l 1
 376 535 l 1
 505 544 l 1
 548 540 l 1
592 536 m 1
 555 541 l 1
 564 535 l 1
 593 532 l 1
 592 536 l 1
343 493 m 1
 343 493 l 1
267 480 m 1
 254 480 l 1
 267 480 l 1
284 480 m 1
 284 480 l 1
318 480 m 1
 301 480 l 1
 305 480 l 1
 318 480 l 1
352 480 m 1
 347 480 l 1
 331 480 l 1
 326 480 l 1
 352 480 l 1
313 286 m 0
 312 281 317 280 320 275 c 0
 322 271 322 261 322 259 c 0
 320 252 311 253 309 251 c 0
 305 245 309 237 309 196 c 0
 309 167 304 146 343 139 c 1
 457 142 l 2
 466 141 472 143 478 149 c 0
 484 157 485 166 480 174 c 1
 343 169 l 1
 343 209 l 1
 332 230 345 253 335 277 c 1
 477 279 l 1
 479 290 l 1
 331 289 l 2
 330 285 313 289 313 286 c 0
651 292 m 0
 651 287 655 286 658 281 c 0
 660 277 661 267 660 265 c 0
 658 258 649 259 648 257 c 0
 644 251 648 243 648 202 c 0
 648 173 643 151 681 145 c 1
 796 148 l 2
 804 146 811 149 816 155 c 0
 822 163 823 171 819 180 c 1
 681 175 l 1
 681 215 l 1
 670 236 684 259 674 283 c 1
 815 285 l 1
 818 296 l 1
 669 294 l 2
 668 291 652 294 651 292 c 0
220 -2 m 0
 208 6 183 14 140 36 c 0
 120 46 98 48 93 57 c 1
 93 57 89 145 89 146 c 0
 88 193 89 253 89 279 c 0
 89 281 82 280 82 282 c 0
 82 287 82 296 82 296 c 1
 82 296 82 305 82 309 c 0
 82 313 89 309 90 313 c 0
 92 362 104 489 161 489 c 0
 187 489 191 472 195 472 c 0
 203 472 208 472 216 472 c 0
 219 472 206 485 326 485 c 0
 390 485 542 482 631 489 c 1
 682 489 l 1
 682 506 l 1
 671 508 l 1
 654 496 665 511 669 493 c 1
 647 513 l 1
 656 493 l 2
 651 500 590 527 500 527 c 0
 410 527 386 509 347 509 c 0
 247 509 321 484 218 501 c 1
 254 501 264 516 309 531 c 1
 315 517 312 523 311 517 c 1
 325 514 l 1
 330 523 326 531 326 531 c 1
 326 531 439 548 491 548 c 0
 493 548 647 544 669 519 c 1
 676 522 673 512 682 531 c 1
 714 518 729 523 750 497 c 1
 682 497 l 1
 725 469 750 489 750 489 c 2
 756 488 753 478 759 476 c 0
 769 474 767 489 767 489 c 1
 783 489 771 476 771 476 c 1
 814 468 824 491 843 460 c 1
 836 465 839 472 818 472 c 0
 812 472 740 468 703 455 c 1
 716 455 l 1
 683 463 693 463 648 463 c 0
 608 463 500 464 483 463 c 2
 483 463 404 459 296 459 c 2
 208 459 l 2
 210 456 221 447 217 447 c 2
 220 434 l 1
 226 375 228 251 228 251 c 2
 228 240 224 139 224 139 c 1
 224 139 225 125 224 107 c 2
 224 107 228 -8 220 -2 c 0
243 -10 m 1
 248 157 243 251 241 336 c 1
 256 335 269 324 281 345 c 1
 303 321 478 356 521 345 c 1
 521 357 l 1
 537 347 577 357 686 357 c 0
 693 357 698 362 703 370 c 1
 713 363 780 362 792 375 c 1
 813 371 818 366 818 366 c 1
 839 366 l 1
 839 366 848 378 860 378 c 0
 872 378 868 383 868 394 c 0
 868 404 850 450 847 455 c 1
 900 378 883 300 885 294 c 0
 889 287 900 300 900 271 c 0
 900 264 886 273 883 252 c 0
 880 238 881 208 881 163 c 0
 881 110 879 80 877 27 c 1
 877 27 877 10 868 -5 c 1
 841 -8 417 -13 415 -11 c 2
 280 -11 l 1
 280 -11 259 -10 243 -10 c 1
93 308 m 1
 93 308 145 292 180 289 c 0
 185 288 194 287 194 287 c 1
 195 274 l 1
 172 274 l 1
 172 274 170 270 170 268 c 0
 170 265 171 261 171 261 c 1
 171 261 163 264 158 266 c 0
 134 273 94 278 94 278 c 1
 94 283 l 1
 166 266 l 1
 166 277 l 1
 191 277 l 1
 191 284 l 1
 191 284 186 284 180 285 c 0
 168 289 148 295 132 298 c 0
 118 300 96 303 96 303 c 1
 94 293 l 1
 94 293 101 291 106 289 c 0
 126 283 159 283 159 283 c 1
 159 278 l 1
 159 278 150 280 143 281 c 0
 122 285 89 291 89 291 c 1
 89 279 l 1
 93 308 l 1
EndSplineSet
Validated: 37
EndChar

StartChar: Eacute
Encoding: 201 201 100
Width: 605
Flags: W
HStem: 255 33 479 33
VStem: 101 103 469 19<180 356 180 356>
LayerCount: 2
Fore
SplineSet
504 727 m 1053
502 727 m 29,1,-1
 82 631 l 29,2,-1
 80 609 l 29,3,-1
 514 707 l 29,4,-1
 502 727 l 29,1,-1
101 202 m 2,0,0
 101 410 l 2,0,0
 101 463 95 482 59 465 c 1,0,0
 57 480 l 1,0,0
 57 480 64 491 70 496 c 0,0,0
 82 507 93 511 109 512 c 2,0,0
 536 512 l 1,0,0
 545 399 l 1,0,0
 525 399 l 1,0,0
 512 467 482 478 399 478 c 2,0,0
 243 478 l 2,0,0
 203 478 199 472 199 442 c 2,0,0
 199 309 l 2,0,0
 199 286 203 284 228 284 c 2,0,0
 351 284 l 2,0,0
 434 284 465 292 469 356 c 1,0,0
 488 356 l 1,0,0
 488 180 l 1,0,0
 469 180 l 1,0,0
 463 246 435 255 351 255 c 2,0,0
 227 255 l 2,0,0
 201 255 199 250 199 230 c 2,0,0
 199 230 198 225 198 197 c 0,0,0
 198 96 245 -53 544 23 c 1,0,0
 526 19 469 -17 395 -18 c 0,0,0
 227 -20 101 42 101 202 c 2,0,0
EndSplineSet
Validated: 37
EndChar

StartChar: Icircumflex
Encoding: 206 206 101
Width: 372
Flags: HW
HStem: 0 33 479 33
VStem: 150 103
LayerCount: 2
Fore
SplineSet
97 599 m 1053
95 597 m 29
 186 723 l 29
 207 724 l 29
 283 593 l 29
 265 593 l 29
 196 709 l 29
 107 596 l 29
 95 597 l 29
60 0 m 1,0,-1
 60 34 l 1,1,2
 133 35 150 49 150 102 c 2,3,-1
 150 409 l 2,4,5
 150 461 131 476 60 478 c 1,6,-1
 60 512 l 1,7,-1
 339 512 l 1,8,-1
 339 478 l 1,9,10
 268 475 248 463 248 409 c 2,11,-1
 248 102 l 2,12,13
 248 49 267 35 339 34 c 1,14,-1
 339 0 l 1,15,-1
 60 0 l 1,0,-1
EndSplineSet
EndChar

StartChar: Egrave
Encoding: 200 200 102
Width: 605
Flags: HW
HStem: 255 33 479 33
VStem: 101 103 469 19<180 356 180 356>
LayerCount: 2
Fore
SplineSet
514 594 m 5
 72 727 l 5
 68 696 l 5
 520 563 l 5
 514 594 l 5
101 202 m 2
 101 410 l 2
 101 463 95 482 59 465 c 1
 57 480 l 1
 57 480 64 491 70 496 c 0
 82 507 93 511 109 512 c 2
 536 512 l 1
 545 399 l 1
 525 399 l 1
 512 467 482 478 399 478 c 2
 243 478 l 2
 203 478 199 472 199 442 c 2
 199 309 l 2
 199 286 203 284 228 284 c 2
 351 284 l 2
 434 284 465 292 469 356 c 1
 488 356 l 1
 488 180 l 1
 469 180 l 1
 463 246 435 255 351 255 c 2
 227 255 l 2
 201 255 199 250 199 230 c 2
 199 230 198 225 198 197 c 0
 198 96 245 -53 544 23 c 1
 526 19 469 -17 395 -18 c 0
 227 -20 101 42 101 202 c 2
EndSplineSet
EndChar

StartChar: Ecircumflex
Encoding: 202 202 103
Width: 605
Flags: HW
HStem: 255 33 479 33
VStem: 101 103 469 19<180 356 180 356>
LayerCount: 2
Fore
SplineSet
228 599 m 1053
226 597 m 29
 317 723 l 29
 338 724 l 29
 414 593 l 29
 396 593 l 29
 327 709 l 29
 238 596 l 29
 226 597 l 29
101 202 m 2,0,0
 101 410 l 2,0,0
 101 463 95 482 59 465 c 1,0,0
 57 480 l 1,0,0
 57 480 64 491 70 496 c 0,0,0
 82 507 93 511 109 512 c 2,0,0
 536 512 l 1,0,0
 545 399 l 1,0,0
 525 399 l 1,0,0
 512 467 482 478 399 478 c 2,0,0
 243 478 l 2,0,0
 203 478 199 472 199 442 c 2,0,0
 199 309 l 2,0,0
 199 286 203 284 228 284 c 2,0,0
 351 284 l 2,0,0
 434 284 465 292 469 356 c 1,0,0
 488 356 l 1,0,0
 488 180 l 1,0,0
 469 180 l 1,0,0
 463 246 435 255 351 255 c 2,0,0
 227 255 l 2,0,0
 201 255 199 250 199 230 c 2,0,0
 199 230 198 225 198 197 c 0,0,0
 198 96 245 -53 544 23 c 1,0,0
 526 19 469 -17 395 -18 c 0,0,0
 227 -20 101 42 101 202 c 2,0,0
EndSplineSet
EndChar

StartChar: Edieresis
Encoding: 203 203 104
Width: 605
Flags: HW
HStem: 255 33 479 33
VStem: 101 103 469 19<180 356 180 356>
LayerCount: 2
Fore
SplineSet
328 645 m 4
 328 676 353 701 384 701 c 4
 415 701 440 676 440 645 c 4
 440 614 415 589 384 589 c 4
 353 589 328 614 328 645 c 4
168 645 m 4
 168 676 193 701 224 701 c 4
 255 701 280 676 280 645 c 4
 280 614 255 589 224 589 c 4
 193 589 168 614 168 645 c 4
101 202 m 2
 101 410 l 2
 101 463 95 482 59 465 c 1
 57 480 l 1
 57 480 64 491 70 496 c 0
 82 507 93 511 109 512 c 2
 536 512 l 1
 545 399 l 1
 525 399 l 1
 512 467 482 478 399 478 c 2
 243 478 l 2
 203 478 199 472 199 442 c 2
 199 309 l 2
 199 286 203 284 228 284 c 2
 351 284 l 2
 434 284 465 292 469 356 c 1
 488 356 l 1
 488 180 l 1
 469 180 l 1
 463 246 435 255 351 255 c 2
 227 255 l 2
 201 255 199 250 199 230 c 2
 199 230 198 225 198 197 c 0
 198 96 245 -53 544 23 c 1
 526 19 469 -17 395 -18 c 0
 227 -20 101 42 101 202 c 2
EndSplineSet
EndChar

StartChar: Igrave
Encoding: 204 204 105
Width: 372
Flags: HW
HStem: 0 33 479 33
VStem: 150 103
LayerCount: 2
Fore
SplineSet
316 650 m 1
 72 727 l 1
 68 696 l 1
 315 624 l 1
 316 650 l 1
60 0 m 1
 60 34 l 1
 133 35 150 49 150 102 c 2
 150 409 l 2
 150 461 131 476 60 478 c 1
 60 512 l 1
 339 512 l 1
 339 478 l 1
 268 475 248 463 248 409 c 2
 248 102 l 2
 248 49 267 35 339 34 c 1
 339 0 l 1
 60 0 l 1
EndSplineSet
EndChar

StartChar: Iacute
Encoding: 205 205 106
Width: 372
Flags: HW
HStem: 0 33 479 33
VStem: 150 103
LayerCount: 2
Fore
SplineSet
355 705 m 1
 24 631 l 1
 22 609 l 1
 359 684 l 1
 355 705 l 1
60 0 m 1
 60 34 l 1
 133 35 150 49 150 102 c 2
 150 409 l 2
 150 461 131 476 60 478 c 1
 60 512 l 1
 339 512 l 1
 339 478 l 1
 268 475 248 463 248 409 c 2
 248 102 l 2
 248 49 267 35 339 34 c 1
 339 0 l 1
 60 0 l 1
EndSplineSet
EndChar

StartChar: Idieresis
Encoding: 207 207 107
Width: 372
Flags: HW
HStem: 0 33 479 33
VStem: 150 103
LayerCount: 2
Fore
SplineSet
228 645 m 4
 228 676 253 701 284 701 c 4
 315 701 340 676 340 645 c 4
 340 614 315 589 284 589 c 4
 253 589 228 614 228 645 c 4
68 645 m 4
 68 676 93 701 124 701 c 4
 155 701 180 676 180 645 c 4
 180 614 155 589 124 589 c 4
 93 589 68 614 68 645 c 4
60 0 m 1
 60 34 l 1
 133 35 150 49 150 102 c 2
 150 409 l 2
 150 461 131 476 60 478 c 1
 60 512 l 1
 339 512 l 1
 339 478 l 1
 268 475 248 463 248 409 c 2
 248 102 l 2
 248 49 267 35 339 34 c 1
 339 0 l 1
 60 0 l 1
EndSplineSet
EndChar

StartChar: Agrave
Encoding: 192 192 108
Width: 753
Flags: HW
HStem: 0 33 169 33
LayerCount: 2
Fore
SplineSet
583 594 m 5
 141 727 l 5
 137 696 l 5
 589 563 l 5
 583 594 l 5
227 198 m 1
 461 198 l 1
 349 413 l 1
 227 198 l 1
608 113 m 2
 626 82 648 18 686 46 c 1
 686 46 693 30 697 23 c 1
 697 20 697 25 697 23 c 1
 665 -30 554 -2 533 52 c 1
 475 169 l 1
 213 169 l 1
 169 89 l 2
 159 71 155 73 155 65 c 0
 155 43 177 34 222 34 c 0
 224 34 225 34 227 34 c 2
 227 0 l 1
 26 0 l 1
 26 34 l 1
 70 34 91 38 116 83 c 2
 368 521 l 1
 390 521 l 1
 608 113 l 2
EndSplineSet
EndChar

StartChar: Aacute
Encoding: 193 193 109
Width: 753
Flags: HW
HStem: 0 33 169 33
LayerCount: 2
Fore
SplineSet
561 727 m 1053
559 727 m 29,1,-1
 139 631 l 29,2,-1
 137 609 l 29,3,-1
 571 707 l 29,4,-1
 559 727 l 29,1,-1
227 198 m 1,0,-1
 461 198 l 1,1,-1
 349 413 l 1,2,-1
 227 198 l 1,0,-1
608 113 m 2,3,4
 626 82 648 18 686 46 c 1,5,6
 686 46 693 30 697 23 c 1,7,8
 697 20 697 25 697 23 c 1,9,10
 665 -30 554 -2 533 52 c 1,11,-1
 475 169 l 1,12,-1
 213 169 l 1,13,-1
 169 89 l 2,14,15
 159 71 155 73 155 65 c 0,16,17
 155 43 177 34 222 34 c 0,18,19
 224 34 225 34 227 34 c 2,20,-1
 227 0 l 1,21,-1
 26 0 l 1,22,-1
 26 34 l 1,23,24
 70 34 91 38 116 83 c 2,25,-1
 368 521 l 1,26,-1
 390 521 l 1,27,-1
 608 113 l 2,3,4
EndSplineSet
EndChar

StartChar: Acircumflex
Encoding: 194 194 110
Width: 753
Flags: HW
HStem: 0 33 169 33
LayerCount: 2
Fore
SplineSet
278 599 m 1053
276 597 m 29
 367 723 l 29
 388 724 l 29
 464 593 l 29
 446 593 l 29
 377 709 l 29
 288 596 l 29
 276 597 l 29
227 198 m 1,0,-1
 461 198 l 1,1,-1
 349 413 l 1,2,-1
 227 198 l 1,0,-1
608 113 m 2,3,4
 626 82 648 18 686 46 c 1,5,6
 686 46 693 30 697 23 c 1,7,8
 697 20 697 25 697 23 c 1,9,10
 665 -30 554 -2 533 52 c 1,11,-1
 475 169 l 1,12,-1
 213 169 l 1,13,-1
 169 89 l 2,14,15
 159 71 155 73 155 65 c 0,16,17
 155 43 177 34 222 34 c 0,18,19
 224 34 225 34 227 34 c 2,20,-1
 227 0 l 1,21,-1
 26 0 l 1,22,-1
 26 34 l 1,23,24
 70 34 91 38 116 83 c 2,25,-1
 368 521 l 1,26,-1
 390 521 l 1,27,-1
 608 113 l 2,3,4
EndSplineSet
EndChar

StartChar: Atilde
Encoding: 195 195 111
Width: 753
Flags: W
HStem: 0 33 169 33
LayerCount: 2
Fore
SplineSet
227 198 m 1
 461 198 l 1
 349 413 l 1
 227 198 l 1
608 113 m 2
 626 82 648 18 686 46 c 1
 686 46 693 30 697 23 c 1
 697 20 697 25 697 23 c 1
 665 -30 554 -2 533 52 c 1
 475 169 l 1
 213 169 l 1
 169 89 l 2
 159 71 155 73 155 65 c 0
 155 43 177 34 222 34 c 0
 224 34 225 34 227 34 c 2
 227 0 l 1
 26 0 l 1
 26 34 l 1
 70 34 91 38 116 83 c 2
 368 521 l 1
 390 521 l 1
 608 113 l 2
EndSplineSet
EndChar

StartChar: Adieresis
Encoding: 196 196 112
Width: 753
Flags: HW
HStem: 0 33 169 33
LayerCount: 2
Fore
SplineSet
398 645 m 4
 398 676 423 701 454 701 c 4
 485 701 510 676 510 645 c 4
 510 614 485 589 454 589 c 4
 423 589 398 614 398 645 c 4
238 645 m 4
 238 676 263 701 294 701 c 4
 325 701 350 676 350 645 c 4
 350 614 325 589 294 589 c 4
 263 589 238 614 238 645 c 4
227 198 m 1
 461 198 l 1
 349 413 l 1
 227 198 l 1
608 113 m 2
 626 82 648 18 686 46 c 1
 686 46 693 30 697 23 c 1
 697 20 697 25 697 23 c 1
 665 -30 554 -2 533 52 c 1
 475 169 l 1
 213 169 l 1
 169 89 l 2
 159 71 155 73 155 65 c 0
 155 43 177 34 222 34 c 0
 224 34 225 34 227 34 c 2
 227 0 l 1
 26 0 l 1
 26 34 l 1
 70 34 91 38 116 83 c 2
 368 521 l 1
 390 521 l 1
 608 113 l 2
EndSplineSet
EndChar

StartChar: Aring
Encoding: 197 197 113
Width: 753
Flags: HW
HStem: 0 33 169 33
LayerCount: 2
Fore
SplineSet
324 578 m 4
 324 609 349 634 380 634 c 4
 411 634 436 609 436 578 c 4
 436 547 411 522 380 522 c 4
 349 522 324 547 324 578 c 4
227 198 m 1
 461 198 l 1
 349 413 l 1
 227 198 l 1
608 113 m 2
 626 82 648 18 686 46 c 1
 686 46 693 30 697 23 c 1
 697 20 697 25 697 23 c 1
 665 -30 554 -2 533 52 c 1
 475 169 l 1
 213 169 l 1
 169 89 l 2
 159 71 155 73 155 65 c 0
 155 43 177 34 222 34 c 0
 224 34 225 34 227 34 c 2
 227 0 l 1
 26 0 l 1
 26 34 l 1
 70 34 91 38 116 83 c 2
 368 521 l 1
 390 521 l 1
 608 113 l 2
EndSplineSet
EndChar

StartChar: Ccedilla
Encoding: 199 199 114
Width: 693
Flags: W
HStem: -12 33 497 26
VStem: 71 103
LayerCount: 2
Fore
SplineSet
638 118 m 1
 638 115 l 1
 581 33 501 -12 391 -12 c 0
 197 -12 71 94 71 252 c 0
 71 411 206 523 397 523 c 0
 490 523 545 494 575 494 c 0
 592 494 604 504 604 519 c 1
 621 519 l 1
 639 354 l 1
 621 354 l 1
 586 447 514 496 413 496 c 0
 273 496 177 403 177 256 c 0
 177 115 275 20 407 20 c 0
 501 20 570 50 638 118 c 1
EndSplineSet
EndChar

StartChar: Ograve
Encoding: 210 210 115
Width: 793
Flags: HW
HStem: -12 33 490 33
VStem: 71 103 605 103
LayerCount: 2
Fore
SplineSet
613 594 m 5
 171 727 l 5
 167 696 l 5
 619 563 l 5
 613 594 l 5
71 256 m 0
 71 419 199 523 390 523 c 0
 580 523 708 419 708 256 c 0
 708 93 580 -12 390 -12 c 0
 199 -12 71 93 71 256 c 0
177 256 m 0
 177 107 261 16 390 16 c 0
 518 16 602 107 602 256 c 0
 602 404 518 495 390 495 c 0
 261 495 177 404 177 256 c 0
EndSplineSet
EndChar

StartChar: Oacute
Encoding: 211 211 116
Width: 793
Flags: HW
HStem: -12 33 490 33
VStem: 71 103 605 103
LayerCount: 2
Fore
SplineSet
604 727 m 1053
602 727 m 29,1,-1
 182 631 l 29,2,-1
 180 609 l 29,3,-1
 614 707 l 29,4,-1
 602 727 l 29,1,-1
71 256 m 0,0,1
 71 419 199 523 390 523 c 0,2,3
 580 523 708 419 708 256 c 0,4,5
 708 93 580 -12 390 -12 c 0,6,7
 199 -12 71 93 71 256 c 0,0,1
177 256 m 0,8,9
 177 107 261 16 390 16 c 0,10,11
 518 16 602 107 602 256 c 0,12,13
 602 404 518 495 390 495 c 0,14,15
 261 495 177 404 177 256 c 0,8,9
EndSplineSet
EndChar

StartChar: Ocircumflex
Encoding: 212 212 117
Width: 793
Flags: HW
HStem: -12 33 490 33
VStem: 71 103 605 103
LayerCount: 2
Fore
SplineSet
297 599 m 1053
295 597 m 29
 386 723 l 29
 407 724 l 29
 483 593 l 29
 465 593 l 29
 396 709 l 29
 307 596 l 29
 295 597 l 29
71 256 m 0,0,1
 71 419 199 523 390 523 c 0,2,3
 580 523 708 419 708 256 c 0,4,5
 708 93 580 -12 390 -12 c 0,6,7
 199 -12 71 93 71 256 c 0,0,1
177 256 m 0,8,9
 177 107 261 16 390 16 c 0,10,11
 518 16 602 107 602 256 c 0,12,13
 602 404 518 495 390 495 c 0,14,15
 261 495 177 404 177 256 c 0,8,9
EndSplineSet
EndChar

StartChar: Otilde
Encoding: 213 213 118
Width: 793
Flags: W
HStem: -12 33 490 33
VStem: 71 103 605 103
LayerCount: 2
Fore
SplineSet
71 256 m 0
 71 419 199 523 390 523 c 0
 580 523 708 419 708 256 c 0
 708 93 580 -12 390 -12 c 0
 199 -12 71 93 71 256 c 0
177 256 m 0
 177 107 261 16 390 16 c 0
 518 16 602 107 602 256 c 0
 602 404 518 495 390 495 c 0
 261 495 177 404 177 256 c 0
EndSplineSet
EndChar

StartChar: Odieresis
Encoding: 214 214 119
Width: 793
Flags: HW
HStem: -12 33 490 33
VStem: 71 103 605 103
LayerCount: 2
Fore
SplineSet
409 645 m 4
 409 676 434 701 465 701 c 4
 496 701 521 676 521 645 c 4
 521 614 496 589 465 589 c 4
 434 589 409 614 409 645 c 4
249 645 m 4
 249 676 274 701 305 701 c 4
 336 701 361 676 361 645 c 4
 361 614 336 589 305 589 c 4
 274 589 249 614 249 645 c 4
71 256 m 0
 71 419 199 523 390 523 c 0
 580 523 708 419 708 256 c 0
 708 93 580 -12 390 -12 c 0
 199 -12 71 93 71 256 c 0
177 256 m 0
 177 107 261 16 390 16 c 0
 518 16 602 107 602 256 c 0
 602 404 518 495 390 495 c 0
 261 495 177 404 177 256 c 0
EndSplineSet
EndChar

StartChar: Ugrave
Encoding: 217 217 120
Width: 802
Flags: HW
HStem: -12 20
LayerCount: 2
Fore
SplineSet
603 594 m 5
 161 727 l 5
 157 696 l 5
 609 563 l 5
 603 594 l 5
238 453 m 2
 238 508 160 542 100 489 c 1
 98 487 101 492 100 489 c 1
 100 482 98 466 98 466 c 1
 151 494 139 430 140 399 c 2
 140 200 l 2
 140 125 154 76 196 43 c 0
 239 6 308 -12 397 -12 c 0
 464 -12 524 0 566 23 c 1
 594 -4 643 -18 691 25 c 1
 693 27 690 22 691 25 c 1
 691 32 693 48 693 48 c 1
 640 20 655 79 655 110 c 0
 655 132 655 182 655 208 c 2
 655 398 l 2
 655 457 672 478 736 480 c 1
 736 512 l 1
 519 512 l 1
 519 480 l 1
 591 479 610 460 610 399 c 2
 610 198 l 2
 610 84 537 23 416 23 c 0
 293 23 238 78 238 200 c 2
 238 453 l 2
EndSplineSet
EndChar

StartChar: Uacute
Encoding: 218 218 121
Width: 802
Flags: HW
HStem: -12 20
LayerCount: 2
Fore
SplineSet
624 727 m 1053
622 727 m 29,1,-1
 202 631 l 29,2,-1
 200 609 l 29,3,-1
 634 707 l 29,4,-1
 622 727 l 29,1,-1
238 453 m 2,0,1
 238 508 160 542 100 489 c 1,2,3
 98 487 101 492 100 489 c 1,4,5
 100 482 98 466 98 466 c 1,6,7
 151 494 139 430 140 399 c 2,8,-1
 140 200 l 2,9,10
 140 125 154 76 196 43 c 0,11,12
 239 6 308 -12 397 -12 c 0,13,14
 464 -12 524 0 566 23 c 1,15,16
 594 -4 643 -18 691 25 c 1,17,18
 693 27 690 22 691 25 c 1,19,20
 691 32 693 48 693 48 c 1,21,22
 640 20 655 79 655 110 c 0,23,24
 655 132 655 182 655 208 c 2,25,-1
 655 398 l 2,26,27
 655 457 672 478 736 480 c 1,28,-1
 736 512 l 1,29,-1
 519 512 l 1,30,-1
 519 480 l 1,31,32
 591 479 610 460 610 399 c 2,33,-1
 610 198 l 2,34,35
 610 84 537 23 416 23 c 0,36,37
 293 23 238 78 238 200 c 2,38,-1
 238 453 l 2,0,1
EndSplineSet
EndChar

StartChar: Ucircumflex
Encoding: 219 219 122
Width: 802
Flags: HW
HStem: -12 20
LayerCount: 2
Fore
SplineSet
327 599 m 1053
325 597 m 29
 416 723 l 29
 437 724 l 29
 513 593 l 29
 495 593 l 29
 426 709 l 29
 337 596 l 29
 325 597 l 29
238 453 m 2,0,1
 238 508 160 542 100 489 c 1,2,3
 98 487 101 492 100 489 c 1,4,5
 100 482 98 466 98 466 c 1,6,7
 151 494 139 430 140 399 c 2,8,-1
 140 200 l 2,9,10
 140 125 154 76 196 43 c 0,11,12
 239 6 308 -12 397 -12 c 0,13,14
 464 -12 524 0 566 23 c 1,15,16
 594 -4 643 -18 691 25 c 1,17,18
 693 27 690 22 691 25 c 1,19,20
 691 32 693 48 693 48 c 1,21,22
 640 20 655 79 655 110 c 0,23,24
 655 132 655 182 655 208 c 2,25,-1
 655 398 l 2,26,27
 655 457 672 478 736 480 c 1,28,-1
 736 512 l 1,29,-1
 519 512 l 1,30,-1
 519 480 l 1,31,32
 591 479 610 460 610 399 c 2,33,-1
 610 198 l 2,34,35
 610 84 537 23 416 23 c 0,36,37
 293 23 238 78 238 200 c 2,38,-1
 238 453 l 2,0,1
EndSplineSet
EndChar

StartChar: Udieresis
Encoding: 220 220 123
Width: 802
Flags: HW
HStem: -12 20
LayerCount: 2
Fore
SplineSet
414 645 m 4
 414 676 439 701 470 701 c 4
 501 701 526 676 526 645 c 4
 526 614 501 589 470 589 c 4
 439 589 414 614 414 645 c 4
254 645 m 4
 254 676 279 701 310 701 c 4
 341 701 366 676 366 645 c 4
 366 614 341 589 310 589 c 4
 279 589 254 614 254 645 c 4
238 453 m 2
 238 508 160 542 100 489 c 1
 98 487 101 492 100 489 c 1
 100 482 98 466 98 466 c 1
 151 494 139 430 140 399 c 2
 140 200 l 2
 140 125 154 76 196 43 c 0
 239 6 308 -12 397 -12 c 0
 464 -12 524 0 566 23 c 1
 594 -4 643 -18 691 25 c 1
 693 27 690 22 691 25 c 1
 691 32 693 48 693 48 c 1
 640 20 655 79 655 110 c 0
 655 132 655 182 655 208 c 2
 655 398 l 2
 655 457 672 478 736 480 c 1
 736 512 l 1
 519 512 l 1
 519 480 l 1
 591 479 610 460 610 399 c 2
 610 198 l 2
 610 84 537 23 416 23 c 0
 293 23 238 78 238 200 c 2
 238 453 l 2
EndSplineSet
EndChar

StartChar: Yacute
Encoding: 221 221 124
Width: 692
Flags: HW
HStem: 0 33 241 33 479 33
VStem: 55 192<478 512 478 512> 291 103 441 192<478 512 478 512>
LayerCount: 2
Fore
SplineSet
562 727 m 1053
560 727 m 29,1,-1
 140 631 l 29,2,-1
 138 609 l 29,3,-1
 572 707 l 29,4,-1
 560 727 l 29,1,-1
394 243 m 1,0,-1
 394 90 l 2,1,2
 394 45 417 33 485 32 c 1,3,-1
 485 0 l 1,4,-1
 205 0 l 1,5,-1
 205 32 l 2,6,7
 207 32 208 32 209 32 c 0,8,9
 272 32 295 48 295 96 c 2,10,-1
 295 243 l 1,11,12
 180 245 122 329 103 401 c 0,13,14
 90 465 86 478 55 478 c 1,15,-1
 55 512 l 1,16,-1
 247 512 l 1,17,-1
 247 478 l 1,18,19
 217 478 202 462 197 428 c 1,20,21
 206 336 224 274 341 274 c 0,22,23
 470 274 482 336 491 428 c 1,24,25
 486 462 471 478 441 478 c 1,26,-1
 441 512 l 1,27,-1
 633 512 l 1,28,-1
 633 478 l 1,29,30
 602 478 598 465 585 401 c 0,31,32
 566 329 508 243 394 243 c 1,0,-1
EndSplineSet
EndChar

StartChar: Ntilde
Encoding: 209 209 125
Width: 753
Flags: W
HStem: 0 20
LayerCount: 2
Fore
SplineSet
255 464 m 1
 217 511 156 542 96 489 c 1
 94 487 97 492 96 489 c 1
 96 482 91 466 91 466 c 1
 144 494 137 426 137 395 c 2
 137 102 l 2
 137 49 127 36 48 32 c 1
 48 0 l 1
 269 0 l 1
 269 32 l 1
 190 36 180 49 180 102 c 2
 180 413 l 1
 595 0 l 1
 613 0 l 1
 613 408 l 2
 613 461 623 474 702 479 c 1
 702 512 l 1
 482 512 l 1
 482 479 l 1
 561 474 570 461 570 408 c 2
 570 148 l 1
 255 464 l 1
EndSplineSet
EndChar
